<?xml version="1.0" encoding="UTF-8"?>
<!-- Generator: visioncortex VTracer -->
<svg id="svg" version="1.1" xmlns="http://www.w3.org/2000/svg" style="display: block;" viewBox="0 0 1024 1024"><path d="M0,0 L102,0 L116,2 L155,4 L174,4 L186,7 L193,11 L204,23 L210,28 L213,31 L232,40 L240,47 L245,51 L249,64 L252,79 L253,90 L254,161 L253,200 L250,215 L242,228 L238,231 L240,247 L240,258 L238,275 L235,280 L235,306 L236,365 L238,369 L259,366 L276,366 L282,369 L284,376 L284,387 L282,396 L275,401 L259,405 L253,406 L237,406 L238,438 L248,445 L257,452 L260,457 L264,487 L264,606 L261,621 L254,630 L247,638 L242,642 L232,647 L230,647 L230,649 L224,653 L218,663 L211,670 L195,678 L180,683 L158,687 L139,690 L114,692 L86,693 L14,693 L-30,690 L-61,685 L-81,679 L-97,671 L-100,669 L-100,667 L-104,665 L-111,652 L-120,647 L-131,641 L-136,638 L-143,630 L-149,625 L-152,621 L-153,617 L-154,603 L-155,514 L-155,485 L-152,471 L-151,455 L-147,450 L-135,443 L-129,439 L-128,431 L-127,408 L-140,407 L-162,404 L-169,401 L-173,396 L-175,389 L-175,380 L-173,371 L-169,367 L-167,366 L-152,366 L-135,368 L-128,368 L-128,280 L-132,277 L-133,268 L-133,232 L-142,225 L-146,219 L-146,217 L-148,217 L-152,208 L-153,177 L-153,110 L-152,75 L-148,62 L-146,52 L-141,47 L-130,40 L-115,33 L-109,30 L-104,24 L-99,21 L-95,15 L-89,10 L-79,6 L-72,4 L-43,4 L-4,1 Z " transform="translate(453,177)" style="fill: #3673A1;"/><path d="M0,0 L89,1 L109,3 L118,5 L124,9 L126,13 L128,13 L132,23 L136,39 L139,60 L142,75 L145,95 L149,119 L149,137 L146,145 L137,149 L129,151 L97,153 L84,154 L81,155 L45,156 L15,156 L16,346 L41,345 L57,345 L57,331 L58,331 L59,338 L64,337 L65,335 L65,337 L73,337 L73,335 L105,335 L106,339 L105,345 L105,355 L111,357 L113,358 L129,358 L148,352 L154,348 L160,343 L164,343 L163,328 L164,327 L160,323 L160,320 L151,320 L153,318 L159,316 L161,315 L171,314 L172,311 L177,311 L178,301 L180,296 L179,294 L182,292 L183,287 L200,287 L200,279 L203,279 L203,287 L205,287 L205,279 L206,278 L207,263 L211,263 L211,247 L212,247 L212,313 L210,321 L207,330 L200,339 L192,346 L182,351 L180,351 L180,353 L174,357 L168,367 L161,374 L145,382 L130,387 L108,391 L89,394 L64,396 L36,397 L-36,397 L-80,394 L-91,392 L-95,390 L-111,387 L-129,382 L-138,378 L-148,372 L-155,363 L-159,354 L-170,349 L-179,344 L-179,342 L-184,340 L-190,335 L-192,330 L-196,330 L-201,321 L-202,316 L-203,255 L-203,184 L-202,181 L-199,181 L-198,231 L-197,263 L-195,263 L-192,292 L-190,292 L-188,287 L-186,287 L-184,294 L-171,294 L-169,295 L-166,323 L-165,327 L-162,327 L-162,319 L-153,319 L-150,320 L-150,334 L-149,339 L-146,342 L-141,347 L-132,353 L-127,354 L-127,356 L-121,356 L-113,358 L-98,357 L-92,354 L-91,353 L-91,343 L-96,338 L-106,331 L-117,325 L-113,323 L-71,326 L-66,327 L-66,329 L-63,328 L-51,328 L-47,329 L-47,327 L-44,327 L-43,319 L-42,319 L-42,346 L-1,346 L-1,155 L-63,155 L-113,151 L-127,149 L-133,146 L-136,143 L-137,140 L-137,119 L-133,95 L-131,84 L-127,58 L-125,51 L-122,31 L-120,31 L-119,19 L-114,10 L-103,4 L-87,2 L-71,1 Z " transform="translate(503,473)" style="fill: #373B4B;"/><path d="M0,0 L102,0 L116,2 L155,4 L174,4 L186,7 L193,11 L204,23 L210,28 L213,31 L232,40 L240,47 L245,51 L249,64 L251,73 L250,77 L246,69 L244,57 L242,52 L233,46 L219,38 L211,35 L204,27 L198,23 L193,15 L191,14 L191,12 L181,9 L171,7 L143,7 L107,5 L102,4 L102,7 L62,7 L62,3 L46,3 L46,6 L5,6 L5,4 L-37,7 L-69,7 L-80,9 L-89,12 L-89,14 L-94,18 L-95,23 L-101,27 L-106,32 L-111,35 L-119,39 L-129,43 L-140,51 L-143,55 L-145,68 L-148,71 L-150,79 L-150,199 L-148,212 L-147,215 L-143,217 L-139,223 L-129,231 L-130,236 L-130,271 L-128,275 L-126,276 L-126,373 L-133,372 L-141,370 L-152,369 L-167,369 L-171,373 L-172,379 L-172,392 L-169,398 L-162,401 L-138,405 L-126,405 L-125,407 L-124,439 L-109,439 L-109,437 L-104,433 L-103,431 L-101,431 L-101,428 L-97,429 L-91,431 L-91,435 L-89,435 L-88,431 L-86,436 L-86,439 L-83,440 L-83,442 L-72,445 L-53,447 L-13,450 L49,451 L49,642 L8,642 L7,623 L5,625 L5,623 L3,623 L3,625 L-16,625 L-16,623 L-53,621 L-63,620 L-65,621 L-51,629 L-42,636 L-40,639 L-40,649 L-45,653 L-56,655 L-69,654 L-77,652 L-77,650 L-82,650 L-96,640 L-97,636 L-99,636 L-100,638 L-100,631 L-101,630 L-101,618 L-100,616 L-109,615 L-110,617 L-110,615 L-112,615 L-112,623 L-115,623 L-117,619 L-119,597 L-119,591 L-131,591 L-134,590 L-136,586 L-136,583 L-137,585 L-139,585 L-140,589 L-143,591 L-145,567 L-145,559 L-147,559 L-148,551 L-149,527 L-149,477 L-152,477 L-152,551 L-151,612 L-148,621 L-146,626 L-142,626 L-136,634 L-129,638 L-129,640 L-123,642 L-116,646 L-108,650 L-102,662 L-97,668 L-88,673 L-79,677 L-61,682 L-42,686 L-42,687 L-50,687 L-65,684 L-86,677 L-100,669 L-100,667 L-104,665 L-111,652 L-120,647 L-131,641 L-136,638 L-143,630 L-149,625 L-152,621 L-153,617 L-154,603 L-155,514 L-155,485 L-152,471 L-151,455 L-147,450 L-135,443 L-129,439 L-128,431 L-127,408 L-140,407 L-162,404 L-169,401 L-173,396 L-175,389 L-175,380 L-173,371 L-169,367 L-167,366 L-152,366 L-135,368 L-128,368 L-128,280 L-132,277 L-133,268 L-133,232 L-142,225 L-146,219 L-146,217 L-148,217 L-152,208 L-153,177 L-153,110 L-152,75 L-148,62 L-146,52 L-141,47 L-130,40 L-115,33 L-109,30 L-104,24 L-99,21 L-95,15 L-89,10 L-79,6 L-72,4 L-43,4 L-4,1 Z " transform="translate(453,177)" style="fill: #5B9ABE;"/><path d="M0,0 L8,2 L57,3 L57,5 L63,5 L64,2 L59,2 L59,1 L66,1 L67,0 L109,0 L110,81 L110,259 L67,259 L66,258 L37,258 L10,257 L7,259 L1,258 L1,260 L-3,260 L-3,255 L-5,255 L-5,253 L-7,253 L-8,258 L-12,272 L-16,274 L-18,276 L-18,257 L-15,65 L-14,25 L-12,13 L-10,15 L-10,7 L-7,5 L2,4 L-1,1 Z " transform="translate(391,215)" style="fill: #65A1C3;"/><path d="M0,0 L41,0 L42,1 L43,17 L44,9 L93,9 L105,10 L106,12 L110,13 L111,17 L116,18 L120,33 L124,94 L126,169 L128,193 L129,239 L130,265 L132,278 L132,287 L130,290 L128,290 L125,285 L122,287 L122,279 L121,273 L118,274 L116,273 L116,271 L114,271 L110,266 L101,263 L85,261 L77,260 L2,259 L1,121 L0,25 Z " transform="translate(515,215)" style="fill: #6AA3C5;"/><path d="M0,0 L3,1 L15,1 L16,4 L18,4 L19,8 L19,99 L16,127 L13,148 L9,164 L7,166 L4,166 L4,168 L-21,174 L-28,174 L-28,176 L-36,176 L-36,178 L-52,179 L-90,180 L-91,183 L-92,206 L-108,207 L-133,207 L-134,180 L-134,17 L-68,15 L-65,14 L-40,12 L-20,11 L-6,7 L-1,2 Z " transform="translate(652,612)" style="fill: #629DC0;"/><path d="M0,0 L13,0 L16,1 L16,3 L0,3 L0,5 L-7,8 L-12,10 L-13,14 L-17,14 L-18,17 L-13,17 L-12,22 L-8,21 L-8,57 L-10,57 L-9,64 L-9,166 L-10,193 L-11,286 L-15,329 L-11,328 L-9,320 L-5,321 L-5,319 L-7,319 L-7,316 L-4,316 L-4,318 L-2,318 L-1,315 L-1,321 L-3,321 L-5,341 L-7,348 L-12,382 L-16,401 L-18,427 L-22,429 L-24,425 L-28,424 L-32,422 L-32,425 L-34,425 L-36,429 L-40,431 L-40,433 L-55,433 L-56,435 L-57,399 L-59,400 L-69,400 L-83,398 L-96,395 L-102,391 L-104,386 L-104,373 L-102,366 L-98,362 L-83,362 L-68,364 L-57,367 L-57,270 L-61,268 L-62,265 L-62,230 L-61,225 L-70,218 L-74,213 L-80,206 L-82,193 L-82,73 L-79,64 L-77,62 L-75,49 L-69,42 L-56,34 L-44,29 L-38,26 L-33,21 L-28,17 L-26,17 L-26,12 L-22,8 L-20,8 L-20,6 L-8,1 Z " transform="translate(384,183)" style="fill: #326791;"/><path d="M0,0 L31,0 L31,1 L1,1 L2,191 L27,190 L43,190 L43,176 L44,176 L45,183 L50,182 L51,180 L51,182 L59,182 L59,180 L91,180 L92,184 L91,190 L91,200 L97,202 L99,203 L115,203 L134,197 L140,193 L146,188 L150,188 L149,173 L150,172 L146,168 L146,165 L137,165 L139,163 L145,161 L147,160 L157,159 L158,156 L163,156 L164,146 L166,141 L165,139 L168,137 L169,132 L186,132 L186,124 L189,124 L189,132 L191,132 L191,124 L192,123 L193,108 L197,108 L197,92 L198,92 L198,158 L196,166 L193,175 L186,184 L178,191 L168,196 L166,196 L166,198 L160,202 L154,212 L147,219 L131,227 L116,232 L94,236 L75,239 L50,241 L22,242 L-50,242 L-94,239 L-105,237 L-109,235 L-125,232 L-143,227 L-152,223 L-162,217 L-169,208 L-173,199 L-184,194 L-193,189 L-193,187 L-198,185 L-204,180 L-206,175 L-210,175 L-215,166 L-216,161 L-217,100 L-217,29 L-216,26 L-213,26 L-212,76 L-211,108 L-209,108 L-206,137 L-204,137 L-202,132 L-200,132 L-198,139 L-185,139 L-183,140 L-180,168 L-179,172 L-176,172 L-176,164 L-167,164 L-164,165 L-164,179 L-163,184 L-160,187 L-155,192 L-146,198 L-141,199 L-141,201 L-135,201 L-127,203 L-112,202 L-106,199 L-105,198 L-105,188 L-110,183 L-120,176 L-131,170 L-127,168 L-85,171 L-80,172 L-80,174 L-77,173 L-65,173 L-61,174 L-61,172 L-58,172 L-57,164 L-56,164 L-56,191 L-15,191 L-15,1 Z " transform="translate(517,628)" style="fill: #1D3F5F;"/><path d="M0,0 L1,0 L2,11 L3,82 L2,121 L-1,136 L-9,149 L-13,152 L-11,168 L-11,179 L-13,196 L-16,201 L-16,227 L-15,286 L-13,290 L8,287 L25,287 L31,290 L33,297 L33,308 L31,317 L24,322 L8,326 L2,327 L-14,327 L-13,359 L-3,366 L6,373 L9,378 L13,408 L13,527 L10,542 L7,544 L8,538 L10,530 L10,480 L6,480 L6,495 L5,496 L4,504 L2,504 L2,496 L-1,496 L-1,504 L-18,504 L-18,509 L-21,512 L-20,515 L-22,518 L-24,528 L-29,528 L-30,532 L-40,533 L-43,535 L-48,536 L-41,537 L-41,540 L-38,541 L-35,544 L-35,550 L-36,550 L-36,545 L-38,545 L-37,549 L-37,560 L-42,562 L-49,568 L-62,573 L-72,576 L-88,576 L-96,572 L-97,570 L-97,562 L-96,553 L-128,552 L-128,554 L-137,554 L-143,556 L-144,548 L-144,539 L-142,535 L-104,534 L-88,534 L-88,532 L-80,532 L-80,530 L-59,526 L-52,524 L-48,524 L-48,522 L-44,520 L-40,504 L-36,475 L-34,455 L-34,360 L-36,360 L-37,358 L-50,358 L-52,358 L-54,359 L-53,354 L-53,336 L-58,304 L-61,288 L-67,251 L-72,234 L-71,232 L-68,232 L-66,241 L-66,244 L-64,240 L-62,245 L-61,249 L-58,246 L-58,237 L-60,224 L-60,208 L-59,208 L-56,236 L-55,240 L-55,248 L-53,248 L-51,254 L-49,256 L-51,256 L-50,269 L-48,276 L-45,296 L-41,315 L-40,328 L-36,349 L-36,354 L-32,354 L-30,360 L-26,362 L-22,363 L-24,384 L-16,383 L-14,379 L-12,379 L-12,376 L-8,376 L-8,373 L-4,372 L-4,370 L-8,371 L-8,369 L-12,369 L-12,367 L-17,366 L-21,362 L-24,360 L-22,358 L-17,361 L-17,336 L-18,324 L2,324 L22,320 L26,317 L28,317 L30,308 L30,296 L29,292 L27,292 L27,306 L16,309 L0,312 L-15,312 L-18,306 L-18,300 L-20,300 L-19,307 L-19,315 L-37,315 L-38,311 L-41,147 L-41,125 L-37,125 L-35,176 L-32,176 L-32,169 L-28,168 L-28,170 L-26,170 L-26,168 L-24,168 L-23,165 L-20,165 L-20,187 L-23,186 L-24,173 L-26,176 L-27,192 L-23,194 L-23,208 L-21,208 L-20,216 L-19,198 L-17,195 L-21,195 L-21,190 L-19,190 L-19,160 L-23,158 L-23,156 L-25,157 L-27,166 L-29,166 L-29,160 L-31,160 L-31,165 L-32,165 L-32,160 L-34,160 L-34,144 L-29,143 L-28,129 L-25,129 L-24,134 L-23,134 L-23,144 L-22,146 L-23,152 L-18,153 L-17,150 L-9,144 L-2,130 L0,120 Z " transform="translate(704,256)" style="fill: #3776A2;"/><path d="M0,0 L102,0 L116,2 L155,4 L174,4 L186,7 L193,11 L204,23 L210,28 L213,31 L232,40 L240,47 L245,51 L249,64 L251,73 L250,77 L246,69 L244,57 L242,52 L233,46 L219,38 L211,35 L204,27 L198,23 L193,15 L191,14 L191,12 L181,9 L171,7 L143,7 L107,5 L102,4 L102,7 L62,7 L62,3 L46,3 L46,6 L5,6 L5,4 L-37,7 L-69,7 L-80,9 L-89,12 L-89,14 L-94,18 L-95,23 L-101,27 L-106,32 L-111,35 L-119,39 L-129,43 L-140,51 L-143,55 L-145,68 L-148,71 L-150,79 L-150,199 L-148,212 L-147,215 L-143,217 L-139,223 L-129,231 L-130,236 L-130,271 L-128,275 L-126,276 L-126,373 L-133,372 L-141,370 L-152,369 L-167,369 L-171,373 L-172,379 L-172,392 L-169,398 L-162,401 L-138,405 L-126,405 L-125,407 L-124,439 L-109,439 L-109,437 L-103,433 L-104,442 L-105,444 L-107,444 L-106,519 L-105,531 L-105,551 L-103,551 L-103,575 L-101,575 L-99,596 L-99,602 L-96,603 L-95,607 L-81,609 L-69,611 L-45,613 L-37,614 L-13,615 L5,617 L7,619 L6,625 L5,623 L3,623 L3,625 L-16,625 L-16,623 L-53,621 L-63,620 L-65,621 L-51,629 L-42,636 L-40,639 L-40,649 L-45,653 L-56,655 L-69,654 L-77,652 L-77,650 L-82,650 L-96,640 L-97,636 L-99,636 L-100,638 L-100,631 L-101,630 L-101,618 L-100,616 L-109,615 L-110,617 L-110,615 L-112,615 L-112,623 L-115,623 L-117,619 L-119,597 L-119,591 L-131,591 L-134,590 L-136,586 L-136,583 L-137,585 L-139,585 L-140,589 L-143,591 L-145,567 L-145,559 L-147,559 L-148,551 L-149,527 L-149,477 L-152,477 L-152,551 L-151,612 L-148,621 L-146,626 L-142,626 L-136,634 L-129,638 L-129,640 L-123,642 L-116,646 L-108,650 L-102,662 L-97,668 L-88,673 L-79,677 L-61,682 L-42,686 L-42,687 L-50,687 L-65,684 L-86,677 L-100,669 L-100,667 L-104,665 L-111,652 L-120,647 L-131,641 L-136,638 L-143,630 L-149,625 L-152,621 L-153,617 L-154,603 L-155,514 L-155,485 L-152,471 L-151,455 L-147,450 L-135,443 L-129,439 L-128,431 L-127,408 L-140,407 L-162,404 L-169,401 L-173,396 L-175,389 L-175,380 L-173,371 L-169,367 L-167,366 L-152,366 L-135,368 L-128,368 L-128,280 L-132,277 L-133,268 L-133,232 L-142,225 L-146,219 L-146,217 L-148,217 L-152,208 L-153,177 L-153,110 L-152,75 L-148,62 L-146,52 L-141,47 L-130,40 L-115,33 L-109,30 L-104,24 L-99,21 L-95,15 L-89,10 L-79,6 L-72,4 L-43,4 L-4,1 Z " transform="translate(453,177)" style="fill: #2D6B9A;"/><path d="M0,0 L41,0 L42,1 L44,97 L45,177 L45,259 L2,259 L1,121 L0,25 Z " transform="translate(515,215)" style="fill: #ECDF84;"/><path d="M0,0 L42,0 L43,81 L43,259 L1,259 L0,41 Z " transform="translate(458,215)" style="fill: #EEE082;"/><path d="M0,0 L5,1 L6,5 L8,5 L8,11 L5,11 L7,26 L9,37 L11,49 L14,93 L14,113 L12,113 L12,116 L10,116 L11,120 L13,121 L13,119 L15,119 L16,121 L16,134 L23,133 L26,133 L27,133 L28,138 L34,140 L34,135 L35,135 L36,86 L37,85 L49,85 L49,89 L51,89 L53,69 L54,69 L54,45 L53,19 L54,15 L57,16 L58,19 L59,37 L59,141 L56,153 L50,165 L43,171 L40,174 L35,173 L35,167 L34,165 L34,160 L33,160 L33,150 L30,150 L30,166 L29,164 L24,165 L24,181 L29,181 L29,187 L31,187 L32,178 L35,177 L35,179 L39,180 L40,181 L40,209 L39,211 L37,211 L37,216 L41,216 L40,219 L38,245 L37,245 L36,237 L35,237 L34,229 L34,215 L31,213 L31,197 L33,193 L35,194 L36,207 L38,208 L38,186 L35,187 L34,189 L32,189 L32,191 L30,191 L30,189 L27,190 L26,197 L24,197 L24,205 L23,205 L22,197 L21,173 L21,146 L17,146 L18,168 L21,336 L39,336 L37,323 L38,321 L40,321 L42,330 L43,333 L58,332 L82,327 L85,327 L85,313 L87,313 L89,317 L89,329 L87,336 L82,341 L66,345 L60,346 L46,346 L40,345 L41,347 L42,357 L42,383 L37,381 L35,381 L41,385 L41,387 L46,388 L46,390 L50,390 L50,392 L54,391 L54,393 L50,394 L50,397 L46,397 L46,400 L44,400 L43,404 L42,405 L34,405 L34,390 L36,384 L33,385 L28,381 L26,378 L26,375 L22,375 L17,349 L15,331 L12,317 L8,293 L7,290 L7,276 L5,273 L5,269 L3,269 L-1,240 L-3,219 L-4,173 L-4,7 L-1,1 Z " transform="translate(646,235)" style="fill: #2D638F;"/><path d="M0,0 L1,0 L3,64 L19,64 L19,57 L20,56 L69,55 L69,48 L75,48 L76,55 L77,56 L78,67 L80,80 L81,88 L81,144 L78,144 L78,152 L68,153 L67,168 L60,169 L59,176 L52,177 L51,192 L43,192 L43,200 L12,201 L10,203 L10,200 L8,200 L8,205 L5,203 L4,242 L3,242 L1,80 L0,32 Z " transform="translate(557,232)" style="fill: #75A9C8;"/><path d="M0,0 L39,0 L41,2 L54,2 L54,0 L115,0 L150,1 L160,1 L163,2 L163,11 L157,23 L155,23 L155,25 L147,27 L97,27 L54,26 L55,51 L56,147 L56,285 L40,285 L39,107 L39,26 L-29,27 L-53,27 L-65,25 L-69,20 L-72,11 L-74,11 L-75,3 L-74,1 L-37,1 Z " transform="translate(461,189)" style="fill: #43495B;"/><path d="M0,0 L12,0 L12,190 L-4,191 L-29,191 L-30,164 L-30,1 Z " transform="translate(548,628)" style="fill: #ECDC73;"/><path d="M0,0 L42,0 L42,191 L1,191 L0,68 Z " transform="translate(460,628)" style="fill: #ECDC75;"/><path d="M0,0 L8,2 L57,3 L57,5 L63,5 L64,2 L59,2 L59,1 L65,1 L66,9 L66,89 L63,89 L61,57 L61,41 L25,41 L25,49 L9,49 L9,56 L2,57 L-5,59 L-5,72 L-3,72 L-3,81 L-1,81 L-1,121 L-4,121 L-4,129 L-6,129 L-5,137 L-9,137 L-9,169 L-10,217 L-13,217 L-12,222 L-11,225 L-9,225 L-9,232 L1,233 L41,233 L42,248 L49,248 L49,251 L57,251 L60,254 L62,258 L37,258 L10,257 L7,259 L1,258 L1,260 L-3,260 L-3,255 L-5,255 L-5,253 L-7,253 L-8,258 L-12,272 L-16,274 L-18,276 L-18,257 L-15,65 L-14,25 L-12,13 L-10,15 L-10,7 L-7,5 L2,4 L-1,1 Z " transform="translate(391,215)" style="fill: #5497BD;"/><path d="M0,0 L10,0 L9,2 L6,4 L6,15 L3,26 L0,31 L1,39 L-1,39 L-1,44 L2,44 L2,59 L3,60 L3,71 L1,87 L-2,151 L-5,157 L-8,157 L-7,159 L-7,167 L-15,173 L-18,174 L-18,176 L-24,180 L-26,182 L-26,139 L-33,140 L-34,143 L-39,143 L-40,145 L-42,146 L-43,152 L-46,151 L-46,46 L-48,45 L-46,40 L-45,31 L-39,24 L-26,16 L-14,11 L-8,8 L-3,3 Z " transform="translate(354,201)" style="fill: #3576A3;"/><path d="M0,0 L3,2 L17,2 L18,5 L23,5 L25,7 L30,9 L55,9 L60,6 L61,8 L66,8 L66,12 L77,12 L77,14 L82,14 L95,21 L97,21 L98,18 L114,18 L114,20 L191,20 L194,21 L210,20 L211,19 L226,19 L234,20 L234,22 L242,22 L242,20 L237,20 L239,16 L243,16 L258,16 L259,13 L260,16 L266,17 L268,13 L280,13 L301,12 L301,17 L295,21 L290,21 L290,23 L267,24 L258,25 L257,29 L253,29 L254,34 L246,36 L234,38 L226,38 L226,40 L210,42 L209,43 L186,45 L138,45 L90,43 L61,40 L37,35 L24,31 L15,27 L5,21 L0,15 L0,9 L-3,7 L-1,2 Z M260,12 Z " transform="translate(350,824)" style="fill: #193652;"/><path d="M0,0 L1,0 L2,40 L2,258 L1,258 L0,232 L-1,228 L-9,228 L-9,220 L-33,220 L-33,216 L-41,216 L-41,208 L-57,208 L-57,136 L-41,136 L-41,112 L-33,112 L-33,104 L-25,104 L-25,96 L-9,96 L-9,89 L-8,89 L-7,96 L-7,128 L-3,128 L-3,88 L0,88 Z " transform="translate(457,216)" style="fill: #73A8C8;"/><path d="M0,0 L5,0 L5,10 L7,10 L8,198 L5,200 L-11,200 L-11,183 L-13,183 L-13,193 L-14,197 L-18,198 L-29,198 L-53,194 L-56,193 L-63,196 L-63,183 L-61,176 L-57,172 L-42,172 L-27,174 L-16,177 L-16,80 L-20,78 L-21,75 L-21,40 L-19,35 L-16,35 L-16,19 L-14,12 L-9,7 Z " transform="translate(343,373)" style="fill: #2F6D9D;"/><path d="M0,0 L1,0 L2,11 L3,82 L2,121 L-1,136 L-9,149 L-13,152 L-11,168 L-11,179 L-13,196 L-16,201 L-16,227 L-15,286 L-13,290 L8,287 L25,287 L31,290 L33,297 L33,308 L31,317 L24,322 L8,326 L2,327 L-14,327 L-13,359 L-3,366 L6,373 L9,378 L12,400 L12,408 L11,408 L8,396 L7,380 L6,376 L2,374 L2,372 L-3,370 L-12,365 L-12,363 L-15,363 L-16,325 L0,325 L13,322 L24,319 L28,317 L30,308 L30,296 L29,292 L27,292 L27,306 L16,309 L0,312 L-15,312 L-18,306 L-18,300 L-20,300 L-19,307 L-19,315 L-37,315 L-38,311 L-41,147 L-41,125 L-37,125 L-35,176 L-32,176 L-32,169 L-28,168 L-28,170 L-26,170 L-26,168 L-24,168 L-23,165 L-20,165 L-20,187 L-23,186 L-24,173 L-26,176 L-27,192 L-23,194 L-23,208 L-21,208 L-20,216 L-19,198 L-17,195 L-21,195 L-21,190 L-19,190 L-19,160 L-23,158 L-23,156 L-25,157 L-27,166 L-29,166 L-29,160 L-31,160 L-31,165 L-32,165 L-32,160 L-34,160 L-34,144 L-29,143 L-28,129 L-25,129 L-24,134 L-23,134 L-23,144 L-22,146 L-23,152 L-18,153 L-17,150 L-9,144 L-2,130 L0,120 Z " transform="translate(704,256)" style="fill: #2C6494;"/><path d="M0,0 L102,0 L116,2 L155,4 L174,4 L186,7 L193,11 L204,23 L210,28 L213,31 L232,40 L240,47 L245,51 L249,64 L251,73 L250,77 L246,69 L244,57 L242,52 L233,46 L219,38 L211,35 L204,27 L198,23 L193,15 L191,14 L191,12 L181,9 L171,7 L143,7 L107,5 L102,4 L102,7 L62,7 L62,3 L46,3 L46,6 L5,6 L5,4 L-37,7 L-69,7 L-80,9 L-89,12 L-89,14 L-94,18 L-95,23 L-101,27 L-106,32 L-111,35 L-119,39 L-129,43 L-140,51 L-143,55 L-145,68 L-148,71 L-150,79 L-150,199 L-148,212 L-147,215 L-143,217 L-139,223 L-129,231 L-130,236 L-130,271 L-128,275 L-126,276 L-126,373 L-133,372 L-141,370 L-152,369 L-167,369 L-171,373 L-172,379 L-172,392 L-169,398 L-162,401 L-138,405 L-126,405 L-126,441 L-136,447 L-138,449 L-138,458 L-141,461 L-142,463 L-126,463 L-125,477 L-124,511 L-124,543 L-133,543 L-136,542 L-136,540 L-142,540 L-144,539 L-145,541 L-145,527 L-147,527 L-148,517 L-148,458 L-146,457 L-145,454 L-147,454 L-147,457 L-149,457 L-149,474 L-152,480 L-152,551 L-151,612 L-148,621 L-146,626 L-142,626 L-136,634 L-129,638 L-129,640 L-123,642 L-116,646 L-108,650 L-102,662 L-97,668 L-88,673 L-79,677 L-61,682 L-42,686 L-42,687 L-50,687 L-65,684 L-86,677 L-100,669 L-100,667 L-104,665 L-111,652 L-120,647 L-131,641 L-136,638 L-143,630 L-149,625 L-152,621 L-153,617 L-154,603 L-155,514 L-155,485 L-152,471 L-151,455 L-147,450 L-135,443 L-129,439 L-128,431 L-127,408 L-140,407 L-162,404 L-169,401 L-173,396 L-175,389 L-175,380 L-173,371 L-169,367 L-167,366 L-152,366 L-135,368 L-128,368 L-128,280 L-132,277 L-133,268 L-133,232 L-142,225 L-146,219 L-146,217 L-148,217 L-152,208 L-153,177 L-153,110 L-152,75 L-148,62 L-146,52 L-141,47 L-130,40 L-115,33 L-109,30 L-104,24 L-99,21 L-95,15 L-89,10 L-79,6 L-72,4 L-43,4 L-4,1 Z " transform="translate(453,177)" style="fill: #5E93B9;"/><path d="M0,0 L15,0 L16,25 L17,121 L17,259 L1,259 L0,81 Z " transform="translate(500,215)" style="fill: #78A6C1;"/><path d="M0,0 L18,1 L18,2 L3,2 L3,39 L6,39 L6,41 L11,43 L20,48 L25,54 L26,56 L27,72 L29,79 L29,84 L31,84 L31,203 L28,218 L25,220 L26,214 L28,206 L28,156 L24,156 L24,171 L23,172 L22,180 L20,180 L20,172 L17,172 L17,180 L0,180 L0,185 L-3,188 L-2,191 L-4,194 L-6,204 L-9,204 L-8,192 L-6,188 L-5,178 L-3,178 L-2,166 L0,132 L1,124 L2,76 L3,73 L4,60 L6,56 L10,56 L10,49 L14,48 L14,46 L10,47 L10,45 L6,45 L6,43 L1,42 L-3,38 L-6,36 L-4,34 L1,37 L1,12 Z " transform="translate(686,580)" style="fill: #3573A0;"/><path d="M0,0 L39,0 L39,121 L38,121 L37,41 L35,41 L35,89 L34,105 L31,105 L31,89 L27,89 L27,85 L12,85 L11,89 L8,89 L9,105 L9,137 L7,137 L7,105 L5,105 L5,73 L3,73 L3,89 L0,89 L-1,1 Z " transform="translate(517,215)" style="fill: #EEDF6B;"/><path d="M0,0 L1,0 L1,190 L-15,191 L-40,191 L-41,164 L-41,1 L-31,1 L-31,2 L-40,2 L-39,76 L-39,108 L-37,108 L-36,124 L-23,123 L-4,123 L0,124 L0,60 L-3,60 L-3,28 L-5,28 L-4,12 L-2,10 L-15,10 L-15,8 L0,8 Z " transform="translate(559,628)" style="fill: #E8DA7B;"/><path d="M0,0 L3,2 L3,4 L7,6 L11,7 L9,28 L17,27 L19,23 L21,23 L21,20 L25,20 L25,24 L21,24 L20,28 L19,41 L18,44 L17,92 L15,116 L14,134 L12,146 L10,146 L10,156 L8,160 L6,172 L4,172 L3,176 L-7,177 L-10,179 L-15,180 L-8,181 L-8,184 L-5,185 L-2,188 L-2,194 L-3,194 L-3,189 L-5,189 L-4,193 L-4,204 L-9,206 L-16,212 L-29,217 L-39,220 L-55,220 L-63,216 L-64,214 L-64,206 L-62,203 L-60,203 L-59,199 L-53,194 L-45,189 L-26,184 L-23,182 L-26,180 L-23,177 L-13,175 L-9,172 L1,172 L1,169 L3,169 L4,159 L6,141 L9,140 L9,130 L10,124 L7,124 L7,85 L9,84 L9,92 L11,92 L11,60 L5,60 L5,53 L8,52 L8,36 L3,36 L3,12 L1,12 L0,7 Z " transform="translate(671,612)" style="fill: #2A6495;"/><path d="M0,0 L11,0 L38,2 L118,2 L142,1 L150,0 L166,0 L166,4 L163,6 L154,7 L162,9 L162,11 L165,11 L166,7 L171,7 L175,12 L158,15 L150,15 L150,17 L134,19 L133,20 L110,22 L62,22 L14,20 L-6,18 L-12,16 L-12,14 L-6,11 L1,8 Z " transform="translate(426,847)" style="fill: #183651;"/><path d="M0,0 L3,1 L2,93 L0,125 L-1,133 L-3,133 L-3,144 L-5,157 L-7,157 L-8,168 L-11,181 L-14,201 L-16,213 L-17,213 L-18,189 L-18,44 L-20,44 L-20,37 L-15,24 L-12,23 L-10,17 L-6,8 L-4,5 L-2,5 Z " transform="translate(368,339)" style="fill: #425060;"/><path d="M0,0 L16,0 L16,4 L56,4 L56,1 L85,2 L109,4 L109,6 L115,6 L119,9 L109,9 L106,8 L88,7 L50,7 L49,8 L-3,8 L-3,6 L-47,7 L-47,8 L-75,9 L-86,11 L-102,11 L-112,10 L-112,20 L-110,20 L-104,32 L-99,34 L-91,35 L-41,35 L-42,44 L-43,44 L-43,36 L-44,41 L-51,40 L-51,38 L-100,38 L-108,36 L-105,40 L-115,41 L-117,42 L-117,50 L-120,52 L-121,60 L-122,100 L-125,292 L-125,309 L-121,307 L-117,293 L-115,288 L-113,288 L-113,290 L-111,290 L-111,295 L-107,295 L-107,293 L-101,293 L-98,291 L-67,292 L-48,292 L-42,293 L-42,260 L-41,260 L-41,294 L-83,296 L-99,298 L-110,304 L-114,312 L-115,318 L-117,318 L-117,321 L-119,321 L-119,319 L-122,319 L-122,322 L-120,322 L-120,324 L-122,324 L-123,328 L-126,332 L-130,332 L-129,312 L-127,289 L-126,196 L-125,169 L-125,60 L-123,60 L-124,28 L-123,24 L-127,25 L-128,20 L-133,20 L-132,16 L-128,16 L-127,13 L-119,8 L-115,8 L-115,6 L-99,6 L-99,4 L-67,2 L-59,1 L-41,1 L-41,3 L0,3 Z " transform="translate(499,180)" style="fill: #417DA9;"/><path d="M0,0 L31,0 L31,1 L1,1 L1,164 L-1,167 L-13,167 L-14,191 L-15,191 L-15,1 Z " transform="translate(517,628)" style="fill: #629CBF;"/><path d="M0,0 L3,0 L3,4 L5,4 L7,10 L15,25 L17,30 L17,34 L19,34 L20,41 L18,41 L19,63 L20,116 L20,211 L19,211 L15,188 L15,172 L11,172 L10,156 L9,155 L7,140 L7,124 L3,124 L2,108 L1,76 Z " transform="translate(645,340)" style="fill: #475463;"/><path d="M0,0 L1,2 L3,2 L6,19 L6,26 L8,26 L8,34 L10,34 L12,45 L16,53 L29,55 L34,58 L38,58 L38,60 L43,61 L43,62 L61,66 L75,75 L80,79 L82,82 L82,92 L77,96 L66,98 L53,97 L45,95 L45,93 L40,93 L26,83 L25,79 L23,79 L22,81 L22,74 L21,73 L21,61 L22,59 L13,58 L12,60 L12,58 L10,58 L10,66 L7,66 L5,62 L3,40 L3,34 L-9,34 L-12,33 L-14,29 L-14,26 L-15,28 L-17,28 L-18,32 L-21,34 L-21,10 L-20,10 L-19,15 L-17,15 L-17,12 L-3,11 Z " transform="translate(331,734)" style="fill: #225684;"/><path d="M0,0 L38,0 L40,1 L40,104 L39,104 L39,72 L37,72 L37,57 L22,57 L21,71 L20,72 L6,72 L6,56 L3,56 L3,8 L1,8 L1,32 L0,32 Z " transform="translate(459,216)" style="fill: #EEDE67;"/><path d="M0,0 L10,0 L9,2 L6,4 L6,7 L3,7 L3,15 L0,21 L-2,23 L-10,23 L-11,21 L-17,20 L-17,23 L-21,23 L-20,39 L-20,70 L-21,70 L-23,82 L-24,109 L-25,111 L-34,111 L-35,109 L-44,107 L-46,99 L-46,46 L-48,45 L-46,40 L-45,31 L-39,24 L-26,16 L-14,11 L-8,8 L-3,3 Z " transform="translate(354,201)" style="fill: #4180AC;"/><path d="M0,0 L49,0 L61,1 L62,3 L66,4 L67,8 L72,9 L76,24 L77,40 L77,56 L76,56 L75,48 L73,44 L73,40 L71,40 L70,33 L65,31 L60,32 L52,33 L51,32 L2,32 L0,16 Z M65,28 L66,30 Z " transform="translate(559,224)" style="fill: #5899C1;"/><path d="M0,0 L2,0 L2,27 L44,25 L70,25 L72,27 L72,34 L71,37 L51,38 L43,39 L-61,39 L-83,37 L-83,39 L-85,39 L-87,36 L-87,30 L-85,27 L-82,26 L-56,26 L-14,27 L-14,3 L-13,2 L-1,2 Z " transform="translate(517,792)" style="fill: #151F2B;"/><path d="M0,0 L102,0 L116,2 L155,4 L174,4 L186,7 L193,11 L204,23 L210,28 L213,31 L232,40 L240,47 L245,51 L249,64 L251,73 L250,77 L246,69 L244,57 L242,52 L233,46 L219,38 L211,35 L204,27 L198,23 L193,15 L191,14 L191,12 L181,9 L171,7 L143,7 L107,5 L102,4 L102,7 L62,7 L62,3 L46,3 L46,6 L5,6 L5,4 L-37,7 L-69,7 L-80,9 L-89,12 L-89,14 L-94,18 L-95,23 L-101,27 L-106,32 L-111,35 L-119,39 L-129,43 L-140,51 L-143,55 L-145,68 L-148,71 L-150,79 L-150,199 L-148,212 L-147,215 L-143,217 L-139,223 L-129,231 L-130,236 L-130,271 L-128,275 L-126,276 L-126,373 L-133,372 L-141,370 L-152,369 L-167,369 L-171,373 L-172,379 L-172,392 L-169,398 L-162,401 L-138,405 L-126,405 L-126,441 L-136,447 L-141,450 L-146,451 L-146,453 L-148,453 L-148,455 L-150,455 L-148,451 L-134,442 L-129,439 L-128,431 L-127,408 L-140,407 L-162,404 L-169,401 L-173,396 L-175,389 L-175,380 L-173,371 L-169,367 L-167,366 L-152,366 L-135,368 L-128,368 L-128,280 L-132,277 L-133,268 L-133,232 L-142,225 L-146,219 L-146,217 L-148,217 L-152,208 L-153,177 L-153,110 L-152,75 L-148,62 L-146,52 L-141,47 L-130,40 L-115,33 L-109,30 L-104,24 L-99,21 L-95,15 L-89,10 L-79,6 L-72,4 L-43,4 L-4,1 Z " transform="translate(453,177)" style="fill: #F0F6F4;"/><path d="M0,0 L3,0 L4,50 L5,82 L7,82 L10,111 L12,111 L14,106 L16,106 L18,113 L31,113 L33,114 L35,130 L37,150 L38,154 L38,162 L40,162 L41,170 L33,169 L25,164 L23,163 L23,161 L18,159 L12,154 L10,149 L6,149 L1,140 L0,135 L-1,74 L-1,3 Z " transform="translate(301,654)" style="fill: #1B4165;"/><path d="M0,0 L3,1 L4,4 L5,22 L5,126 L2,138 L-4,150 L-11,156 L-16,157 L-17,136 L-19,136 L-20,132 L-24,130 L-33,123 L-33,121 L-29,122 L-20,125 L-20,120 L-19,120 L-18,71 L-17,70 L-5,70 L-5,74 L-3,74 L-1,54 L0,54 L0,30 L-1,4 Z " transform="translate(700,250)" style="fill: #296090;"/><path d="M0,0 L12,0 L12,1 L2,2 L3,68 L3,156 L35,156 L35,160 L38,160 L38,108 L40,108 L40,2 L36,3 L28,3 L24,1 L42,1 L42,191 L1,191 L0,68 Z " transform="translate(460,628)" style="fill: #E1DD84;"/><path d="M0,0 L3,0 L4,97 L15,97 L16,93 L23,93 L24,134 L29,130 L31,130 L31,128 L40,121 L43,121 L42,125 L37,128 L26,136 L24,139 L23,145 L22,161 L17,160 L9,154 L5,149 L-1,142 L-3,129 L-3,9 Z " transform="translate(305,247)" style="fill: #1A486F;"/><path d="M0,0 L5,0 L5,16 L3,17 L2,24 L8,24 L8,56 L6,56 L5,49 L4,88 L7,88 L6,104 L4,105 L1,128 L0,133 L-2,133 L-2,136 L-12,137 L-16,140 L-28,142 L-28,144 L-24,147 L-23,149 L-38,151 L-50,155 L-60,162 L-63,167 L-66,168 L-66,161 L-98,160 L-98,162 L-107,162 L-113,164 L-113,150 L-109,149 L-96,148 L-80,148 L-76,146 L-58,144 L-34,145 L-33,143 L-30,142 L-29,138 L-26,138 L-26,136 L-21,134 L-15,134 L-14,130 L-10,120 L-9,117 L-7,117 L-7,109 L-5,107 L-3,100 L-1,49 L0,48 Z " transform="translate(674,648)" style="fill: #2C6C9D;"/><path d="M0,0 L1,0 L1,66 L-1,74 L-3,80 L-8,81 L-9,83 L-11,83 L-12,89 L-14,89 L-15,86 L-15,89 L-17,90 L-18,94 L-21,94 L-21,96 L-26,100 L-35,105 L-39,104 L-37,104 L-36,96 L-34,96 L-34,88 L-30,68 L-30,60 L-31,64 L-31,69 L-38,70 L-38,72 L-40,72 L-42,80 L-47,80 L-51,76 L-51,73 L-60,73 L-58,71 L-52,69 L-50,68 L-40,67 L-39,64 L-34,64 L-33,54 L-31,49 L-32,47 L-29,45 L-28,40 L-11,40 L-11,32 L-8,32 L-8,40 L-6,40 L-6,32 L-5,31 L-4,16 L0,16 Z " transform="translate(714,720)" style="fill: #1A4670;"/><path d="M0,0 L1,0 L2,11 L3,82 L2,121 L-1,136 L-9,149 L-13,152 L-11,168 L-11,179 L-13,196 L-16,201 L-16,227 L-15,286 L-13,290 L8,287 L25,287 L31,290 L33,297 L33,308 L31,317 L24,322 L8,326 L2,327 L-14,327 L-13,359 L-3,366 L6,373 L9,378 L12,400 L12,408 L11,408 L8,396 L7,380 L6,376 L2,374 L2,372 L-3,370 L-12,365 L-12,363 L-15,363 L-16,325 L0,325 L13,322 L24,319 L28,317 L30,308 L30,296 L29,292 L27,292 L27,302 L25,302 L25,304 L19,306 L-9,309 L-14,309 L-14,299 L-13,295 L-17,295 L-18,232 L-18,200 L-17,195 L-21,195 L-21,190 L-19,190 L-19,160 L-23,158 L-23,156 L-25,157 L-27,166 L-29,166 L-29,160 L-31,160 L-31,165 L-32,165 L-32,160 L-34,160 L-34,144 L-29,143 L-28,129 L-25,129 L-24,134 L-23,134 L-23,144 L-22,146 L-23,152 L-18,153 L-17,150 L-9,144 L-2,130 L0,120 Z " transform="translate(704,256)" style="fill: #2F6A9C;"/><path d="M0,0 L5,0 L5,10 L7,10 L7,187 L2,187 L1,147 L0,43 L-3,42 L-4,42 L-4,51 L-7,51 L-8,54 L-10,40 L-17,41 L-16,71 L-14,77 L-18,77 L-20,70 L-21,40 L-19,35 L-16,35 L-16,19 L-14,12 L-9,7 Z " transform="translate(343,373)" style="fill: #3472A1;"/><path d="M0,0 L2,0 L1,5 L-1,5 L0,80 L1,92 L1,112 L3,112 L3,136 L5,136 L7,157 L7,163 L10,164 L11,168 L25,170 L37,172 L61,174 L69,175 L93,176 L111,178 L111,182 L98,181 L98,179 L85,179 L53,177 L35,177 L29,174 L5,170 L1,169 L0,161 L0,152 L-3,152 L-4,137 L-6,140 L-7,124 L-9,121 L-11,118 L-11,96 L-13,96 L-13,64 L-11,64 L-12,56 L-12,40 L-7,40 L-7,24 L-3,24 L-2,4 Z " transform="translate(347,616)" style="fill: #3679A6;"/><path d="M0,0 L2,0 L5,35 L6,40 L7,55 L14,56 L15,58 L16,56 L24,56 L24,40 L25,8 L26,8 L27,32 L27,84 L26,84 L25,70 L24,78 L23,76 L21,76 L21,72 L9,73 L8,124 L6,127 L0,126 L-2,121 L-6,122 L-8,121 L-12,121 L-13,115 L-13,106 L-15,106 L-15,108 L-18,107 L-18,103 L-16,103 L-16,100 L-14,100 L-13,96 L-11,107 L-9,109 L-9,64 L-7,64 L-6,88 L-5,94 L-3,92 L-3,75 L-2,75 L-2,80 L2,80 L1,73 L-2,71 L-2,57 L-5,56 L-5,48 L-3,41 L-2,41 L-2,4 Z " transform="translate(674,248)" style="fill: #2E6B9A;"/><path d="M0,0 L5,0 L5,3 L8,4 L9,12 L8,45 L8,93 L11,94 L10,98 L4,100 L5,103 L7,103 L7,105 L5,105 L5,115 L4,119 L0,120 L-11,120 L-35,116 L-38,115 L-45,118 L-45,105 L-43,98 L-39,94 L-24,94 L-9,96 L2,99 L2,2 L0,2 Z " transform="translate(325,451)" style="fill: #30658E;"/><path d="M0,0 L2,4 L8,36 L10,39 L14,40 L14,28 L18,28 L18,27 L18,14 L22,12 L33,12 L34,13 L34,20 L50,20 L50,44 L81,44 L83,44 L88,45 L88,44 L97,44 L98,41 L98,44 L100,44 L100,49 L104,48 L109,49 L110,56 L108,58 L108,54 L90,53 L66,52 L50,50 L26,48 L10,45 L7,42 L4,39 L2,21 L2,12 L0,12 Z " transform="translate(350,740)" style="fill: #5494BA;"/><path d="M0,0 L1,0 L3,29 L5,104 L7,128 L8,174 L9,200 L11,213 L11,222 L9,225 L7,225 L4,220 L1,222 L1,214 L0,208 L-3,209 L-5,208 L-5,206 L-7,206 L-10,201 L-4,200 L-6,202 L4,205 L4,200 L7,200 L6,187 L4,186 L4,182 L-4,182 L-5,180 L-12,179 L-36,178 L-36,176 L-44,176 L-44,168 L-28,168 L-28,161 L-27,160 L-13,159 L-11,154 L-11,151 L-1,150 L2,146 L2,111 L1,40 L0,32 Z " transform="translate(636,280)" style="fill: #5E9EC1;"/><path d="M0,0 L2,0 L2,17 L21,17 L22,20 L22,28 L20,36 L22,36 L22,48 L19,55 L16,58 L14,58 L14,60 L-1,60 L-2,62 L-3,26 L-5,27 L-15,27 L-29,25 L-42,22 L-48,18 L-49,12 L-42,9 L-34,11 L-16,14 L-1,14 Z " transform="translate(330,556)" style="fill: #285D88;"/><path d="M0,0 L15,0 L15,41 L14,89 L13,113 L12,121 L11,121 L11,106 L8,106 L8,121 L3,121 L2,105 L0,49 Z " transform="translate(500,215)" style="fill: #6BA4C4;"/><path d="M0,0 L2,2 L3,10 L5,10 L5,129 L2,144 L-1,146 L0,140 L2,132 L2,82 L-2,82 L-2,97 L-3,98 L-4,106 L-6,106 L-6,98 L-9,98 L-9,106 L-26,106 L-26,111 L-29,114 L-28,117 L-30,120 L-32,130 L-35,130 L-34,118 L-32,114 L-31,104 L-29,104 L-28,92 L-26,58 L-25,50 L-24,2 L-23,2 L-22,78 L-19,74 L-19,77 L-16,78 L-15,80 L-11,77 L-9,77 L-9,75 L-7,74 L-4,69 L-2,61 L-1,50 Z " transform="translate(712,654)" style="fill: #275B87;"/><path d="M0,0 L11,0 L11,2 L14,3 L14,6 L19,6 L19,10 L16,10 L16,18 L14,18 L15,74 L16,79 L17,117 L17,150 L16,150 L15,119 L11,58 L7,43 L3,42 L2,38 L-3,37 L-3,35 L-64,34 L-64,66 L-65,66 L-67,25 L-15,25 L-7,24 L-7,22 L-5,22 L-2,13 L0,10 Z " transform="translate(623,190)" style="fill: #397BA8;"/><path d="M0,0 L4,1 L9,10 L9,78 L7,78 L6,88 L4,88 L3,92 L-5,107 L-8,112 L-10,112 L-10,94 L-8,54 L-4,22 L-3,16 L-5,14 L-5,6 L-3,5 Z " transform="translate(362,234)" style="fill: #253C53;"/><path d="M0,0 L2,0 L4,4 L4,16 L2,23 L-3,28 L-19,32 L-25,33 L-39,33 L-45,32 L-44,34 L-43,44 L-43,70 L-48,68 L-51,65 L-51,60 L-53,60 L-53,58 L-57,58 L-59,60 L-61,59 L-62,52 L-62,46 L-64,45 L-64,25 L-46,25 L-48,10 L-47,8 L-45,8 L-43,17 L-42,20 L-27,19 L-3,14 L0,14 Z " transform="translate(731,548)" style="fill: #1A4975;"/><path d="M0,0 L143,0 L148,3 L150,4 L150,6 L148,6 L148,8 L128,10 L108,11 L36,11 L4,9 L-4,6 L-4,2 Z " transform="translate(436,830)" style="fill: #215785;"/><path d="M0,0 L1,0 L0,16 L4,15 L6,7 L10,8 L10,6 L8,6 L8,3 L11,3 L11,5 L13,5 L14,2 L14,8 L12,8 L10,28 L8,35 L3,69 L-1,88 L-3,114 L-7,116 L-9,112 L-13,111 L-17,109 L-17,112 L-19,112 L-18,108 L-17,93 L-14,93 L-14,77 L-12,72 L-9,55 L-8,53 L-7,37 L-5,32 L-1,4 Z " transform="translate(369,496)" style="fill: #35739E;"/><path d="M0,0 L13,0 L16,1 L16,3 L0,3 L0,5 L-7,8 L-12,10 L-13,14 L-17,14 L-18,17 L-13,17 L-12,22 L-8,21 L-8,57 L-10,57 L-9,64 L-9,166 L-11,162 L-13,153 L-13,65 L-17,55 L-19,52 L-23,53 L-25,57 L-27,57 L-26,65 L-24,64 L-24,71 L-26,81 L-29,77 L-28,62 L-31,62 L-32,65 L-31,57 L-29,57 L-31,53 L-30,46 L-27,41 L-25,33 L-25,20 L-21,19 L-28,18 L-26,17 L-26,12 L-22,8 L-20,8 L-20,6 L-8,1 Z " transform="translate(384,183)" style="fill: #366E98;"/><path d="M0,0 L1,0 L2,7 L7,6 L8,4 L8,6 L16,6 L16,4 L48,4 L49,8 L48,14 L48,28 L66,30 L66,31 L80,32 L80,33 L64,34 L58,34 L56,38 L50,36 L49,34 L48,36 L32,37 L32,35 L27,40 L32,40 L32,42 L24,42 L24,40 L1,40 L0,41 L-16,42 L-48,42 L-48,41 L-16,40 L-16,38 L-8,37 L-3,38 L-3,36 L16,34 L24,34 L24,32 L26,32 L26,30 L20,28 L19,27 L8,26 L8,25 L28,25 L28,15 L27,14 L1,14 L0,13 Z M50,32 Z " transform="translate(560,804)" style="fill: #1A3C5C;"/><path d="M0,0 L3,0 L3,4 L5,4 L7,10 L15,25 L17,30 L17,34 L19,34 L20,41 L18,41 L19,63 L20,116 L20,211 L19,211 L15,188 L14,172 L13,112 L12,105 L12,44 L10,32 L9,28 L7,28 L3,17 L3,14 L1,14 L0,12 Z " transform="translate(645,340)" style="fill: #354E69;"/><path d="M0,0 L5,1 L6,5 L8,5 L8,11 L5,11 L7,26 L9,37 L11,49 L13,81 L13,107 L10,106 L9,101 L7,101 L4,95 L2,85 L-1,84 L-2,80 L-3,53 L-3,8 L-1,1 Z " transform="translate(646,235)" style="fill: #283D57;"/><path d="M0,0 L3,1 L3,18 L2,20 L0,20 L2,37 L2,41 L5,25 L8,9 L9,9 L9,25 L10,25 L10,41 L8,65 L6,113 L4,113 L4,115 L2,115 L2,117 L0,117 L0,85 L1,54 L2,49 L-2,50 L-9,49 L-11,44 L-11,32 L-10,9 L-10,2 Z " transform="translate(346,239)" style="fill: #377BAA;"/><path d="M0,0 L4,2 L37,2 L38,4 L38,28 L22,29 L-3,29 L-3,4 Z " transform="translate(522,790)" style="fill: #E2CB2D;"/><path d="M0,0 L8,0 L8,4 L16,4 L16,28 L19,28 L19,33 L21,34 L-18,34 L-19,33 L-19,8 L-15,8 L-14,4 L0,4 Z " transform="translate(480,440)" style="fill: #EBDB74;"/><path d="M0,0 L1,0 L1,9 L-3,29 L-4,37 L-6,37 L-7,45 L-1,43 L6,39 L4,37 L9,37 L9,35 L13,33 L13,29 L16,26 L16,30 L18,30 L19,24 L21,24 L22,20 L22,22 L27,21 L25,25 L19,33 L11,40 L1,45 L-1,45 L-1,47 L-7,51 L-13,61 L-20,68 L-36,76 L-51,81 L-73,85 L-92,88 L-117,90 L-145,91 L-217,91 L-261,88 L-272,86 L-272,85 L-264,85 L-244,87 L-196,89 L-148,89 L-125,87 L-124,86 L-108,85 L-108,83 L-88,80 L-76,80 L-63,81 L-44,76 L-25,68 L-17,61 L-17,56 L-15,56 L-15,54 L-13,54 L-12,46 L-10,40 L-10,31 L-8,31 L-8,21 L-10,13 L-8,13 L-8,11 L-5,9 L-2,9 L-2,3 Z " transform="translate(684,779)" style="fill: #2D4D6D;"/><path d="M0,0 L1,0 L1,17 L-1,49 L-2,60 L-3,57 L-9,58 L-11,57 L-11,55 L-17,54 L-20,54 L-22,51 L-22,25 L-20,17 L-18,17 L-17,11 L-15,9 L-11,9 L-10,4 L-3,3 L-3,1 Z " transform="translate(331,247)" style="fill: #5892B7;"/><path d="M0,0 L4,0 L6,51 L8,123 L8,180 L21,180 L22,182 L22,190 L4,190 L3,186 L0,22 Z " transform="translate(663,381)" style="fill: #5C91B9;"/><path d="M0,0 L1,0 L2,40 L2,258 L1,258 L0,232 L-1,228 L-3,228 L-3,200 L-5,200 L-4,128 L-3,88 L0,88 Z " transform="translate(457,216)" style="fill: #87ABBA;"/><path d="M0,0 L31,0 L31,1 L1,1 L1,164 L-1,167 L-13,167 L-14,191 L-15,191 L-15,1 Z M-13,2 L-14,12 L-14,60 L-13,164 L-10,161 L-9,108 L-9,60 L-7,60 L-7,156 L-5,156 L-4,148 L-3,161 L0,160 L0,28 L-2,3 L-5,2 Z " transform="translate(517,628)" style="fill: #5F9EB7;"/><path d="M0,0 L15,0 L30,4 L42,12 L45,15 L43,19 L33,24 L16,24 L6,22 L-2,18 L-2,16 L-4,16 L-8,10 L-8,4 Z " transform="translate(364,797)" style="fill: #F5FAFA;"/><path d="M0,0 L3,1 L4,4 L5,22 L5,126 L2,138 L-4,150 L-11,156 L-15,157 L-15,126 L-12,129 L-12,134 L-9,134 L-9,130 L-5,129 L-4,132 L-2,132 L0,82 L0,30 L-1,4 Z " transform="translate(700,250)" style="fill: #2F4C66;"/><path d="M0,0 L2,3 L1,36 L-1,55 L-2,92 L-3,100 L-4,100 L-4,72 L-11,73 L-12,76 L-17,76 L-18,78 L-20,79 L-21,85 L-24,84 L-24,32 L-22,36 L-22,40 L-13,41 L-12,44 L-3,44 L-2,15 L-1,12 Z " transform="translate(332,268)" style="fill: #316D99;"/><path d="M0,0 L16,0 L24,4 L23,11 L21,11 L19,15 L16,16 L16,18 L5,22 L0,24 L-18,24 L-27,19 L-29,15 L-22,9 L-14,4 Z " transform="translate(640,797)" style="fill: #F4F8F8;"/><path d="M0,0 L3,2 L17,2 L18,5 L23,5 L25,7 L30,9 L55,9 L60,6 L61,8 L66,8 L66,12 L64,12 L64,10 L59,14 L56,17 L50,18 L47,23 L40,24 L23,24 L16,21 L16,23 L11,22 L11,20 L3,19 L0,15 L0,9 L-3,7 L-1,2 Z " transform="translate(350,824)" style="fill: #1C3C59;"/><path d="M0,0 L4,0 L4,177 L-1,177 L-1,9 Z " transform="translate(346,383)" style="fill: #5D93BB;"/><path d="M0,0 L134,0 L138,3 L135,5 L108,7 L12,7 L-8,5 L-9,2 Z " transform="translate(444,856)" style="fill: #174975;"/><path d="M0,0 L1,0 L1,24 L0,72 L-1,99 L-3,104 L-6,125 L-7,136 L-10,144 L-12,142 L-11,92 L-9,88 L-8,73 L-6,72 L-6,8 L-4,8 L-4,6 L-1,6 Z " transform="translate(368,360)" style="fill: #474B52;"/><path d="M0,0 L1,0 L1,66 L-1,74 L-3,80 L-8,81 L-9,83 L-11,83 L-12,89 L-14,89 L-15,86 L-15,89 L-17,90 L-18,94 L-21,94 L-21,96 L-26,100 L-35,105 L-39,104 L-37,104 L-36,96 L-34,96 L-34,88 L-32,80 L-25,80 L-25,74 L-10,74 L-8,70 L-6,48 L-3,48 L-2,16 L0,16 Z " transform="translate(714,720)" style="fill: #1E3F5E;"/><path d="M0,0 L11,0 L38,2 L118,2 L142,1 L150,0 L166,0 L166,4 L163,6 L102,8 L38,8 L22,7 L4,7 L0,3 Z " transform="translate(426,847)" style="fill: #0D1D2E;"/><path d="M0,0 L2,4 L8,36 L10,39 L34,40 L34,44 L81,44 L83,44 L88,45 L88,44 L97,44 L98,41 L98,44 L100,44 L100,49 L104,48 L109,49 L110,56 L108,58 L108,54 L90,53 L66,52 L50,50 L26,48 L10,45 L7,42 L4,39 L2,21 L2,12 L0,12 Z " transform="translate(350,740)" style="fill: #4888B0;"/><path d="M0,0 L5,1 L8,2 L8,26 L7,31 L6,72 L7,77 L8,146 L4,170 L3,170 L2,146 L2,1 Z " transform="translate(348,382)" style="fill: #305371;"/><path d="M0,0 L42,3 L47,4 L47,6 L50,5 L62,5 L66,6 L66,4 L70,4 L69,20 L64,20 L62,14 L60,15 L33,15 L28,17 L25,17 L26,20 L24,28 L23,28 L22,20 L17,15 L7,8 L-4,2 Z " transform="translate(390,796)" style="fill: #1D5481;"/><path d="M0,0 L39,0 L39,19 L-2,19 L-2,8 L-1,8 L-1,18 L0,17 Z " transform="translate(463,800)" style="fill: #DCC625;"/><path d="M0,0 L16,0 L26,2 L36,6 L36,8 L40,10 L42,15 L37,15 L35,12 L32,11 L32,9 L26,8 L-4,8 L-32,7 L-93,6 L-93,8 L-95,9 L-108,9 L-108,7 L-147,7 L-195,8 L-192,6 L-184,5 L-157,4 L-157,3 L-112,3 L-112,5 L-60,4 L-59,3 L-21,3 L-3,4 L0,5 L8,5 L0,3 Z " transform="translate(608,183)" style="fill: #41729F;"/><path d="M0,0 L15,0 L30,2 L41,5 L40,7 L40,20 L26,20 L10,18 L6,16 L-4,15 L-5,5 Z " transform="translate(286,545)" style="fill: #609CBF;"/><path d="M0,0 L9,0 L12,1 L12,15 L13,20 L16,23 L21,28 L30,34 L35,35 L35,37 L41,37 L49,39 L64,38 L70,35 L72,34 L72,40 L69,39 L64,42 L39,42 L33,39 L27,37 L26,35 L11,35 L8,35 L6,39 L10,41 L9,46 L6,42 L3,35 L-1,32 L1,32 L0,24 L-2,24 L-5,4 L-3,5 L-3,8 L0,8 Z " transform="translate(341,792)" style="fill: #224869;"/><path d="M0,0 L3,0 L4,82 L6,98 L7,122 L9,142 L10,148 L5,147 L1,140 L0,135 L-1,74 L-1,3 Z " transform="translate(301,654)" style="fill: #2B2F32;"/><path d="M0,0 L26,1 L28,3 L28,7 L24,9 L0,9 L0,12 L-40,12 L-53,9 L-53,6 L-48,5 L-48,7 L-46,7 L-45,3 L-43,2 Z " transform="translate(560,817)" style="fill: #171F27;"/><path d="M0,0 L2,0 L2,10 L1,18 L20,18 L18,24 L14,28 L11,28 L10,24 L0,23 L-2,23 L-2,25 L-5,25 L-5,27 L-15,27 L-29,25 L-42,22 L-48,18 L-49,12 L-42,9 L-34,11 L-16,14 L-1,14 Z " transform="translate(330,556)" style="fill: #183D60;"/><path d="M0,0 L19,0 L22,2 L23,7 L21,6 L21,3 L19,3 L19,13 L17,13 L17,15 L11,17 L-17,20 L-22,20 L-22,10 L-21,6 L-25,5 L-20,3 Z " transform="translate(712,545)" style="fill: #67A3C7;"/><path d="M0,0 L1,0 L2,32 L4,32 L7,61 L9,61 L11,56 L13,56 L15,63 L28,63 L30,64 L31,70 L31,80 L18,82 L15,85 L8,85 L8,80 L4,80 L3,72 L2,48 L0,32 Z " transform="translate(304,704)" style="fill: #1F4B73;"/><path d="M0,0 L1,0 L1,34 L-41,36 L-57,38 L-68,44 L-72,52 L-73,58 L-75,58 L-75,61 L-77,61 L-77,59 L-80,59 L-80,62 L-78,62 L-78,64 L-80,64 L-81,68 L-84,72 L-88,72 L-87,52 L-86,40 L-84,40 L-83,49 L-79,47 L-75,33 L-73,28 L-71,28 L-71,30 L-69,30 L-69,35 L-65,35 L-65,33 L-59,33 L-56,31 L-25,32 L-6,32 L0,33 Z " transform="translate(457,440)" style="fill: #4C89AE;"/><path d="M0,0 L1,0 L1,5 L5,6 L9,8 L8,28 L6,40 L5,56 L4,58 L3,75 L2,80 L2,98 L-3,106 L-5,106 L-5,88 L-3,48 L1,16 L2,10 L0,8 Z " transform="translate(357,240)" style="fill: #325274;"/><path d="M0,0 L3,1 L2,3 L6,4 L3,7 L-5,11 L-13,17 L-15,21 L-18,22 L-18,15 L-50,14 L-50,16 L-59,16 L-65,18 L-65,6 L-63,5 L-59,6 L-59,8 L-42,8 L-42,6 L-34,5 L-26,5 L-18,4 L-18,2 L-15,1 Z " transform="translate(626,794)" style="fill: #275B87;"/><path d="M0,0 L1,0 L3,24 L5,32 L9,34 L13,40 L23,48 L22,53 L22,88 L24,92 L26,93 L26,190 L19,189 L11,187 L0,186 L-15,186 L-19,190 L-20,196 L-20,209 L-17,215 L-10,218 L14,222 L26,222 L26,258 L16,264 L11,267 L6,268 L6,270 L4,270 L4,272 L2,272 L4,268 L18,259 L23,256 L24,248 L25,225 L12,224 L-10,221 L-17,218 L-21,213 L-23,206 L-23,197 L-21,188 L-17,184 L-15,183 L0,183 L17,185 L24,185 L24,97 L20,94 L19,85 L19,49 L10,42 L6,36 L6,34 L4,34 L0,25 Z " transform="translate(301,360)" style="fill: #C6E5F3;"/><path d="M0,0 L3,0 L4,15 L7,16 L9,20 L11,35 L11,56 L10,56 L9,40 L5,25 L1,24 L0,20 L-5,19 L-5,17 L-66,16 L-65,10 L-17,10 L-13,11 L-7,8 L-5,4 L0,4 Z " transform="translate(625,208)" style="fill: #428AB6;"/><path d="M0,0 L20,1 L29,2 L29,4 L12,6 L-8,7 L-80,7 L-112,5 L-115,2 L-88,2 L-13,1 Z " transform="translate(552,834)" style="fill: #275E8C;"/><path d="M0,0 L1,0 L1,8 L-8,20 L-18,25 L-32,29 L-48,29 L-56,25 L-57,23 L-57,15 L-53,11 L-42,17 L-24,17 L-10,12 L-8,12 L-8,10 L-3,5 L-1,5 Z " transform="translate(664,803)" style="fill: #6DA7C5;"/><path d="M0,0 L13,0 L16,1 L16,3 L0,3 L0,5 L-7,8 L-12,10 L-13,14 L-17,14 L-18,17 L-13,17 L-12,22 L-8,21 L-8,57 L-10,57 L-10,62 L-11,62 L-12,56 L-12,41 L-14,41 L-14,50 L-16,50 L-16,43 L-25,45 L-25,41 L-20,41 L-20,33 L-18,33 L-18,26 L-16,26 L-16,23 L-21,22 L-21,19 L-28,18 L-26,17 L-26,12 L-22,8 L-20,8 L-20,6 L-8,1 Z " transform="translate(384,183)" style="fill: #3B729E;"/><path d="M0,0 L4,4 L4,8 L7,8 L7,2 L8,2 L8,7 L10,7 L10,2 L12,2 L13,8 L14,0 L16,2 L16,20 L15,40 L14,38 L12,38 L10,36 L7,36 L7,40 L2,40 L1,63 L0,63 L-1,42 L-3,42 L-4,38 L-8,36 L-17,29 L-17,27 L-13,28 L-10,30 L-10,32 L-5,34 L-4,37 L-2,37 L-2,40 L0,40 Z " transform="translate(684,344)" style="fill: #1B4A76;"/><path d="M0,0 L1,0 L3,6 L5,11 L7,11 L7,13 L13,15 L18,17 L25,18 L42,18 L53,12 L55,10 L58,14 L58,24 L53,28 L42,30 L29,29 L21,27 L21,25 L16,25 L2,15 L0,10 Z " transform="translate(355,802)" style="fill: #76B0CB;"/><path d="M0,0 L1,0 L1,6 L-2,6 L0,21 L2,32 L4,44 L6,76 L6,102 L3,101 L2,96 L0,96 L0,85 L-2,61 L-3,56 L-3,40 L-5,40 L-6,32 L-6,8 L-4,8 Z " transform="translate(653,240)" style="fill: #2E4D70;"/><path d="M0,0 L2,0 L2,24 L1,32 L-5,32 L-5,40 L-7,37 L-14,36 L-14,32 L-23,32 L-25,43 L-27,48 L-27,53 L-34,54 L-34,56 L-36,56 L-38,64 L-43,64 L-47,60 L-47,57 L-56,57 L-54,55 L-48,53 L-46,52 L-36,51 L-35,48 L-30,48 L-29,38 L-27,33 L-28,31 L-25,29 L-24,24 L-7,24 L-7,16 L-4,16 L-4,24 L-2,24 L-2,16 L-1,15 Z " transform="translate(710,736)" style="fill: #1F4F7C;"/><path d="M0,0 L140,0 L148,2 L148,4 L151,4 L152,0 L157,0 L161,5 L144,8 L136,8 L136,10 L132,11 L40,10 L40,9 L112,8 L139,6 L141,5 L136,4 L136,3 L4,3 L-8,5 L-8,2 Z " transform="translate(440,854)" style="fill: #1B3E5E;"/><path d="M0,0 L1,0 L3,24 L4,70 L5,96 L7,109 L7,118 L5,121 L3,121 L0,116 L-3,118 L-3,110 L-4,104 L-7,105 L-9,104 L-9,102 L-11,102 L-14,97 L-8,96 L-10,98 L0,101 L0,96 L3,96 L2,83 L0,82 L0,78 L-8,78 L-8,77 L1,76 L-1,74 L-8,74 L-8,66 L-5,64 L-2,59 L-1,54 L-1,49 L0,48 Z " transform="translate(640,384)" style="fill: #5D99BC;"/><path d="M0,0 L2,3 L5,24 L8,39 L11,59 L11,77 L8,85 L-1,89 L-9,91 L-41,93 L-54,94 L-57,95 L-89,95 L-89,94 L-82,94 L-82,91 L-64,90 L-33,90 L-33,87 L-1,87 L-1,84 L4,82 L6,75 L7,67 L7,56 L6,51 L5,37 L1,19 L0,11 Z " transform="translate(641,533)" style="fill: #213A52;"/><path d="M0,0 L19,0 L51,1 L51,2 L35,3 L3,3 L-8,5 L-17,8 L-17,10 L-22,14 L-23,19 L-29,23 L-34,28 L-39,31 L-47,35 L-57,39 L-68,47 L-71,51 L-73,64 L-76,67 L-78,75 L-79,179 L-81,182 L-81,106 L-80,71 L-76,58 L-74,48 L-69,43 L-58,36 L-43,29 L-37,26 L-32,20 L-27,17 L-23,11 L-17,6 L-7,2 Z " transform="translate(381,181)" style="fill: #E8EFF3;"/><path d="M0,0 L14,0 L13,2 L5,2 L1,1 L5,11 L5,15 L11,16 L13,10 L13,8 L15,8 L15,5 L21,6 L19,7 L20,9 L21,19 L21,45 L16,43 L13,40 L13,35 L11,35 L11,33 L7,33 L5,35 L3,34 L2,27 L2,21 L0,20 Z " transform="translate(667,573)" style="fill: #27527B;"/><path d="M0,0 L1,0 L2,64 L2,241 L0,241 L-1,212 L-1,88 Z " transform="translate(499,232)" style="fill: #DCE199;"/><path d="M0,0 L1,0 L3,96 L4,176 L4,258 L3,258 L3,200 L0,200 Z " transform="translate(556,216)" style="fill: #D9DE99;"/><path d="M0,0 L1,0 L1,16 L2,16 L2,32 L0,56 L-2,104 L-4,104 L-4,106 L-6,106 L-6,108 L-8,108 L-8,76 L-7,72 L-5,29 L-1,3 Z " transform="translate(354,248)" style="fill: #4E88AF;"/><path d="M0,0 L2,0 L4,5 L20,5 L35,3 L36,18 L20,19 L-1,19 L-4,16 L-3,4 L0,4 Z " transform="translate(524,800)" style="fill: #D3BC18;"/><path d="M0,0 L24,1 L48,3 L68,4 L69,72 L69,168 L67,168 L66,152 L65,5 L41,6 L30,7 L24,6 L24,5 L34,4 L18,4 L18,3 L0,1 Z " transform="translate(392,624)" style="fill: #799FA7;"/><path d="M0,0 L1,0 L1,20 L-1,25 L-1,96 L0,157 L3,166 L5,171 L9,171 L15,179 L22,183 L22,185 L28,187 L35,191 L43,195 L49,207 L54,213 L63,218 L72,222 L90,227 L109,231 L109,232 L101,232 L86,229 L65,222 L51,214 L51,212 L47,210 L40,197 L31,192 L20,186 L15,183 L8,175 L2,170 L-1,166 L-2,162 L-3,148 L-4,59 L-4,30 L-1,16 Z " transform="translate(302,632)" style="fill: #C3CED2;"/><path d="M0,0 L1,0 L0,10 L-3,17 L-7,18 L-7,20 L-32,26 L-39,26 L-39,28 L-47,28 L-47,30 L-63,31 L-102,32 L-102,26 L-97,27 L-96,26 L-54,25 L-47,24 L-39,24 L-38,21 L-32,20 L-29,17 L-19,17 L-12,16 L-8,13 L-4,13 L-1,3 Z " transform="translate(663,760)" style="fill: #6199BC;"/><path d="M0,0 L2,4 L5,24 L8,60 L10,78 L10,109 L8,110 L5,104 L2,68 L0,36 Z " transform="translate(656,248)" style="fill: #4F83AD;"/><path d="M0,0 L15,0 L15,41 L10,40 L9,31 L8,31 L7,41 L6,41 L6,25 L4,25 L4,41 L3,41 L2,25 L1,49 L0,49 Z " transform="translate(500,215)" style="fill: #5296BF;"/><path d="M0,0 L2,0 L1,5 L-1,9 L-1,35 L0,94 L2,98 L23,95 L40,95 L46,98 L48,105 L48,116 L46,125 L39,130 L23,134 L17,135 L1,135 L2,167 L12,174 L21,181 L24,186 L27,208 L27,216 L26,216 L23,204 L22,188 L21,184 L17,182 L17,180 L12,178 L3,173 L3,171 L0,171 L-1,133 L15,133 L28,130 L39,127 L43,125 L45,116 L45,102 L44,99 L42,98 L23,98 L3,101 L-2,102 L-3,40 L-3,8 Z " transform="translate(689,448)" style="fill: #BFDDED;"/><path d="M0,0 L1,0 L1,29 L0,34 L-10,35 L-10,37 L-14,37 L-14,34 L-17,34 L-17,19 L-16,18 L-15,10 L-12,10 L-12,7 L-5,2 L0,2 Z " transform="translate(330,254)" style="fill: #679ABC;"/><path d="M0,0 L5,1 L6,7 L8,4 L10,16 L12,17 L12,1 L13,1 L13,49 L11,49 L11,44 L7,44 L7,33 L5,33 L5,49 L0,49 Z " transform="translate(501,239)" style="fill: #5D9BBB;"/><path d="M0,0 L1,0 L3,56 L4,72 L4,177 L3,210 L1,210 L0,32 Z " transform="translate(500,264)" style="fill: #89A8A9;"/><path d="M0,0 L39,0 L41,2 L38,4 L-37,6 L-53,7 L-65,7 L-61,6 L-61,4 L-73,4 L-73,11 L-75,8 L-74,1 L-37,1 Z " transform="translate(461,189)" style="fill: #4F5E6F;"/><path d="M0,0 L40,0 L45,3 L45,8 L39,9 L29,9 L28,8 L14,7 L14,6 L4,6 L2,8 L3,9 L3,10 L-3,11 L-11,11 L-15,9 L-14,8 L-19,7 L-19,6 L-57,5 L-57,7 L-59,7 L-59,4 L-16,3 L0,2 Z " transform="translate(515,189)" style="fill: #4A4E59;"/><path d="M0,0 L31,0 L31,1 L1,1 L1,164 L0,164 L-1,28 L-2,3 L-13,2 L-14,191 L-15,191 L-15,1 Z " transform="translate(517,628)" style="fill: #97AC9D;"/><path d="M0,0 L2,0 L3,9 L0,12 L-1,14 L15,14 L16,28 L16,38 L15,38 L14,29 L12,28 L12,24 L10,24 L9,27 L8,25 L0,26 L0,28 L-4,28 L-5,32 L-6,68 L-7,68 L-7,9 L-5,8 L-4,5 L-6,5 L-6,8 L-8,8 L-8,25 L-9,25 L-9,6 L-7,6 L-7,4 L-5,4 L-5,2 Z " transform="translate(312,626)" style="fill: #3E7BA8;"/><path d="M0,0 L32,0 L35,2 L36,0 L38,3 L38,11 L0,11 L1,29 L-1,29 L-2,19 L-2,5 Z " transform="translate(463,789)" style="fill: #E7D451;"/><path d="M0,0 L3,0 L4,8 L6,9 L6,24 L8,24 L8,8 L12,8 L12,24 L17,24 L17,18 L18,18 L18,35 L15,37 L-1,37 L-1,18 L-3,18 L-3,16 L-5,15 L0,12 L2,12 L2,9 L0,8 Z " transform="translate(333,536)" style="fill: #2C6796;"/><path d="M0,0 L1,2 L9,2 L9,0 L41,0 L42,4 L41,10 L41,20 L39,19 L39,16 L37,16 L37,18 L35,18 L34,14 L30,13 L29,9 L26,10 L24,12 L23,7 L9,8 L-6,8 L-5,3 L0,2 Z " transform="translate(567,808)" style="fill: #1B466C;"/><path d="M0,0 L3,0 L3,81 L1,81 L0,70 L-1,70 L-2,129 L-3,129 L-3,9 Z " transform="translate(305,247)" style="fill: #435360;"/><path d="M0,0 L2,0 L2,2 L0,2 L0,5 L-3,6 L-3,10 L-14,12 L-28,12 L-38,9 L-38,12 L-40,12 L-40,14 L-38,15 L-40,15 L-41,20 L-45,20 L-48,19 L-51,11 L-52,5 L-39,5 L-37,5 L-34,5 L-33,1 L-33,4 L-16,5 L-16,2 L-8,1 L-2,1 Z " transform="translate(720,569)" style="fill: #1C4163;"/><path d="M0,0 L2,0 L3,64 L3,170 L0,170 Z " transform="translate(459,304)" style="fill: #DFE397;"/><path d="M0,0 L12,0 L21,1 L21,2 L0,6 L-28,9 L-29,10 L-57,11 L-129,11 L-173,8 L-184,6 L-184,5 L-176,5 L-156,7 L-108,9 L-60,9 L-37,7 L-36,6 L-20,5 L-20,3 Z " transform="translate(596,859)" style="fill: #6B7C8C;"/><path d="M0,0 L2,0 L2,27 L0,28 L-13,28 L-14,27 L-14,3 L-13,2 L-1,2 Z " transform="translate(517,792)" style="fill: #174977;"/><path d="M0,0 L2,3 L2,8 L4,8 L4,127 L1,142 L-2,144 L-1,138 L1,130 L1,80 L0,80 Z " transform="translate(713,656)" style="fill: #3D505C;"/><path d="M0,0 L32,0 L52,2 L61,4 L67,8 L68,12 L67,14 L62,12 L56,10 L56,7 L49,8 L47,10 L32,10 L32,6 L18,7 L16,8 L16,6 L11,6 L7,4 L0,3 Z " transform="translate(560,474)" style="fill: #484F5E;"/><path d="M0,0 L19,0 L20,1 L36,2 L44,2 L44,5 L53,5 L55,9 L54,14 L44,11 L28,9 L20,8 L-10,7 L-10,5 L-5,5 L-5,3 Z " transform="translate(572,467)" style="fill: #659EC1;"/><path d="M0,0 L3,1 L1,1 L2,23 L3,76 L3,171 L2,171 L-2,148 L-2,139 L1,140 L0,132 L0,82 L-1,67 L-1,52 L1,52 L-1,26 Z " transform="translate(662,380)" style="fill: #2F5374;"/><path d="M0,0 Z M34,0 L41,0 L41,5 L35,9 L30,9 L30,11 L7,12 L-3,14 L-3,12 L-5,11 L-3,11 L-3,7 L-1,7 L-2,2 L0,1 L0,4 L6,5 L8,1 L20,1 Z " transform="translate(610,836)" style="fill: #263145;"/><path d="M0,0 L11,0 L22,1 L27,5 L32,6 L30,11 L23,12 L6,12 L-1,9 L-1,11 L-6,10 L-6,8 L-13,7 L-13,5 L-11,3 L-9,1 L-7,1 Z " transform="translate(367,836)" style="fill: #2E304A;"/><path d="M0,0 L1,0 L4,28 L7,48 L7,64 L5,64 L4,61 L3,67 L0,67 L-2,67 L-2,57 L-5,52 L-11,29 L-12,24 L-8,24 L-6,33 L-6,36 L-4,32 L-2,37 L-1,41 L2,38 L2,29 L0,16 Z " transform="translate(644,464)" style="fill: #4582AB;"/><path d="M0,0 L7,1 L8,3 L12,4 L12,2 L18,3 L19,4 L38,6 L40,7 L40,9 L59,11 L61,14 L60,15 L50,16 L44,18 L30,15 L20,12 L11,8 L1,2 Z " transform="translate(354,843)" style="fill: #1D3751;"/><path d="M0,0 L1,0 L2,56 L3,56 L4,68 L6,130 L4,131 L1,129 L0,124 Z " transform="translate(303,260)" style="fill: #21282E;"/><path d="M0,0 L6,1 L7,4 L15,4 L15,28 L14,28 L14,16 L7,17 L6,20 L1,20 L0,22 L-2,23 L-3,29 L-6,28 L-6,4 L-2,4 L-1,1 Z " transform="translate(314,324)" style="fill: #275E8B;"/><path d="M0,0 L1,0 L1,166 L0,166 L0,60 L-3,60 L-3,28 L-5,28 L-4,12 L-2,10 L-15,10 L-15,8 L0,8 Z " transform="translate(559,628)" style="fill: #DFD887;"/><path d="M0,0 L21,0 L56,1 L66,1 L69,2 L69,11 L67,13 L67,9 L29,6 L5,5 L5,3 L1,2 Z " transform="translate(555,189)" style="fill: #3A5777;"/><path d="M0,0 L1,0 L1,68 L-1,68 L-2,78 L-4,78 L-5,82 L-8,88 L-9,88 L-8,74 L-6,55 L-5,44 L-3,44 L-3,31 L-2,15 L0,15 Z " transform="translate(370,244)" style="fill: #3E4959;"/><path d="M0,0 L10,0 L10,2 L-8,8 L-22,13 L-19,15 L-38,13 L-36,12 L-36,10 L-38,9 L-37,7 L-33,7 L-32,3 L-23,1 Z " transform="translate(640,846)" style="fill: #214466;"/><path d="M0,0 L3,1 L3,10 L-3,21 L-4,25 L-6,26 L-10,35 L-12,45 L-17,44 L-20,43 L-20,37 L-15,24 L-12,23 L-10,17 L-6,8 L-4,5 L-2,5 Z " transform="translate(368,339)" style="fill: #13304E;"/><path d="M0,0 L2,4 L2,95 L1,104 L0,104 L0,64 L-2,64 L-2,32 L-5,32 L-5,24 L-3,24 L-4,19 L-5,16 L-2,16 L-2,8 L0,8 Z " transform="translate(669,616)" style="fill: #5191B7;"/><path d="M0,0 L2,0 L3,11 L4,13 L-35,13 L-35,2 L-34,2 L-34,12 L-33,11 L-33,2 L-26,2 L-25,4 L-14,5 L-8,4 L0,4 Z " transform="translate(496,806)" style="fill: #D5BA13;"/><path d="M0,0 L2,0 L3,8 L3,33 L-9,33 L-9,1 L-8,1 L-7,9 L-6,8 L0,8 Z " transform="translate(512,440)" style="fill: #639DBF;"/><path d="M0,0 L143,0 L140,2 L116,3 L5,4 L1,5 L-1,4 L-1,7 L-4,6 L-4,2 Z " transform="translate(436,830)" style="fill: #234A72;"/><path d="M0,0 L3,4 L6,4 L6,28 L1,27 L-7,21 L-11,16 L-15,12 L-14,10 L-11,6 L-10,9 L-6,10 L-6,8 L-4,8 L-4,4 L0,4 Z " transform="translate(321,380)" style="fill: #193D5D;"/><path d="M0,0 L1,0 L3,24 L5,32 L9,34 L13,40 L23,48 L22,53 L22,88 L24,92 L26,93 L26,190 L22,190 L22,187 L25,187 L24,97 L20,94 L19,85 L19,49 L10,42 L6,36 L6,34 L4,34 L0,25 Z " transform="translate(301,360)" style="fill: #9CC4DC;"/><path d="M0,0 L1,0 L1,160 L-4,160 L-4,128 L-1,120 Z " transform="translate(349,400)" style="fill: #5385AA;"/><path d="M0,0 L3,0 L5,16 L6,40 L8,60 L9,66 L4,65 L1,60 L0,43 Z " transform="translate(302,736)" style="fill: #1B2226;"/><path d="M0,0 L1,0 L1,16 L0,24 L-1,24 L-1,19 L-8,21 L-9,24 L-11,24 L-13,21 L-18,19 L-20,19 L-21,16 L-21,6 L-20,4 L-14,4 L-12,5 L-12,7 L0,8 Z " transform="translate(329,712)" style="fill: #3777A3;"/><path d="M0,0 L2,0 L2,10 L1,18 L20,18 L19,20 L-10,19 L-22,18 L-22,16 L-41,16 L-41,21 L-35,22 L-39,23 L-47,19 L-49,16 L-49,12 L-42,9 L-34,11 L-16,14 L-1,14 Z " transform="translate(330,556)" style="fill: #1B4971;"/><path d="M0,0 L1,0 L1,18 L0,18 L-1,32 L-2,32 L-3,18 L-5,18 L-5,23 L-11,24 L-11,20 L-14,19 L-15,56 L-17,56 L-17,53 L-19,52 L-17,45 L-16,8 L-12,9 L-10,9 L-9,6 L-7,6 L-6,4 L-5,8 L-3,8 L-3,3 L-2,3 L-2,8 L0,8 Z " transform="translate(699,328)" style="fill: #225685;"/><path d="M0,0 L1,2 L5,3 L6,4 L6,32 L5,34 L3,34 L3,39 L7,39 L6,42 L4,68 L3,68 L2,60 L1,60 L0,52 L0,38 L-3,36 L-3,20 L-1,16 L1,17 L2,30 L4,31 L3,7 L-1,9 L-1,2 Z " transform="translate(680,412)" style="fill: #295E88;"/><path d="M0,0 L4,1 L1,3 L-26,5 L-122,5 L-135,4 L-138,2 L-24,2 Z " transform="translate(578,858)" style="fill: #416D94;"/><path d="M0,0 L16,0 L16,1 L1,1 L2,4 L-42,5 L-70,5 L-70,7 L-103,9 L-104,7 L-99,7 L-99,4 L-67,2 L-59,1 L-41,1 L-41,3 L0,3 Z " transform="translate(499,180)" style="fill: #69909F;"/><path d="M0,0 L8,0 L8,14 L6,14 L5,17 L2,17 L1,20 L-4,20 L-4,18 L-6,18 L-6,20 L-8,20 L-8,28 L-9,28 L-10,13 L-9,4 L0,4 Z " transform="translate(320,340)" style="fill: #1E527E;"/><path d="M0,0 L24,1 L39,2 L44,3 L44,5 L47,4 L59,4 L63,5 L63,3 L67,3 L67,9 L55,10 L41,8 L39,7 L19,6 L17,5 L17,3 L14,3 L14,6 L9,4 L8,3 L6,4 L3,3 L3,1 Z " transform="translate(393,797)" style="fill: #255F8F;"/><path d="M0,0 L42,1 L41,3 L38,4 L20,5 L9,5 L9,7 L20,7 L20,10 L36,10 L36,7 L44,7 L46,9 L44,9 L44,11 L4,11 L4,6 L1,5 Z " transform="translate(460,818)" style="fill: #161F24;"/><path d="M0,0 L10,1 L34,1 L36,2 L36,6 L3,6 L4,8 L39,9 L39,11 L-2,11 L-1,2 Z " transform="translate(460,204)" style="fill: #444953;"/><path d="M0,0 L11,1 L11,6 L16,3 L19,0 L18,14 L15,19 L6,20 L6,22 L4,22 L2,16 L2,6 L4,1 Z " transform="translate(330,578)" style="fill: #254D75;"/><path d="M0,0 L1,0 L2,11 L3,82 L2,121 L-1,136 L-9,149 L-13,152 L-11,168 L-11,179 L-12,190 L-13,190 L-14,164 L-15,157 L-17,150 L-9,144 L-2,130 L0,120 Z " transform="translate(704,256)" style="fill: #D9E8EE;"/><path d="M0,0 L19,0 L22,2 L23,7 L21,6 L21,3 L19,3 L19,13 L17,13 L17,15 L11,17 L-17,20 L-22,20 L-22,10 L-21,6 L-25,5 L-20,3 Z M-4,2 L-17,5 L-19,7 L-19,12 L-16,16 L-4,16 L6,15 L8,14 L17,13 L18,3 L16,2 Z " transform="translate(712,545)" style="fill: #5490B6;"/><path d="M0,0 L42,0 L42,3 L61,4 L61,5 L53,5 L53,7 L26,8 L26,4 L11,4 L10,3 L1,3 Z " transform="translate(518,474)" style="fill: #434556;"/><path d="M0,0 L1,0 L0,10 L-2,16 L-4,17 L-6,21 L-12,24 L-16,23 L-64,22 L-65,60 L-66,60 L-68,19 L-16,19 L-8,18 L-8,16 L-6,16 L-3,7 Z " transform="translate(624,196)" style="fill: #4C80A2;"/><path d="M0,0 L1,0 L0,80 L-3,80 L-4,84 L-4,52 L-2,9 Z " transform="translate(351,268)" style="fill: #5491BB;"/><path d="M0,0 L1,0 L1,66 L-1,74 L-6,75 L-4,56 L-2,16 L0,16 Z " transform="translate(714,720)" style="fill: #253239;"/><path d="M0,0 L9,0 L9,2 L-8,4 L-28,5 L-100,5 L-116,4 L-116,3 L-28,2 Z " transform="translate(572,836)" style="fill: #4779A4;"/><path d="M0,0 L2,4 L3,7 L3,108 L2,116 L1,116 Z " transform="translate(701,255)" style="fill: #1B2A37;"/><path d="M0,0 L7,6 L12,9 L12,11 L18,13 L25,17 L33,21 L39,33 L44,39 L53,44 L62,48 L80,53 L99,57 L99,58 L91,58 L76,55 L55,48 L41,40 L41,38 L37,36 L30,23 L21,18 L10,12 L5,9 L0,3 Z " transform="translate(312,806)" style="fill: #C3D1DC;"/><path d="M0,0 L1,0 L2,102 L4,96 L9,96 L9,80 L10,80 L11,88 L11,101 L14,100 L14,106 L10,107 L0,107 Z " transform="translate(503,688)" style="fill: #6292AA;"/><path d="M0,0 L2,1 L4,6 L5,13 L5,41 L3,41 L1,45 L-3,44 L-3,39 L-1,39 L-1,6 L-4,6 L-4,1 L0,2 Z " transform="translate(686,407)" style="fill: #477BA0;"/><path d="M0,0 L3,0 L3,4 L5,4 L7,10 L15,25 L16,40 L13,40 L13,36 L11,36 L9,28 L7,28 L3,17 L3,14 L1,14 L0,12 Z " transform="translate(645,340)" style="fill: #18304B;"/><path d="M0,0 L15,0 L15,41 L14,41 L13,25 L13,14 L11,14 L10,26 L8,25 L8,9 L6,9 L6,6 L12,6 L12,2 L3,3 L2,7 L1,49 L0,49 Z " transform="translate(500,215)" style="fill: #578B9C;"/><path d="M0,0 L1,0 L1,32 L-8,32 L-11,31 L-11,29 L-17,29 L-19,28 L-20,30 L-20,16 L-22,16 L-22,11 L-19,11 L-16,20 L-11,22 L-9,24 L-8,27 L-5,28 L-4,20 L0,19 Z " transform="translate(328,688)" style="fill: #4783AE;"/><path d="M0,0 L19,0 L19,3 L34,3 L34,7 L-7,7 L-5,6 L-5,1 Z " transform="translate(525,467)" style="fill: #E4D563;"/><path d="M0,0 L2,0 L1,5 L-1,9 L-1,35 L0,94 L2,98 L23,95 L40,95 L41,97 L15,99 L3,101 L-2,102 L-3,40 L-3,8 Z " transform="translate(689,448)" style="fill: #A4C7E2;"/><path d="M0,0 L1,0 L2,6 L33,6 L33,10 L129,10 L129,11 L25,11 L3,9 L3,11 L1,11 L-1,8 L-1,2 Z " transform="translate(431,820)" style="fill: #102842;"/><path d="M0,0 L1,0 L1,11 L-3,41 L-5,41 L-5,54 L-7,54 L-8,64 L-9,65 L-10,80 L-14,80 L-12,64 L-9,48 L-6,32 L-4,32 L-3,19 L-2,8 L0,8 Z " transform="translate(367,464)" style="fill: #396182;"/><path d="M0,0 L4,2 L37,2 L38,4 L38,23 L37,23 L37,6 L0,7 L-1,10 L-2,26 L1,27 L1,29 L-3,29 L-3,4 Z " transform="translate(522,790)" style="fill: #D9C950;"/><path d="M0,0 L4,2 L11,8 L14,11 L33,20 L41,27 L46,31 L50,44 L52,53 L51,57 L47,49 L45,37 L43,32 L34,26 L20,18 L12,15 L5,7 L0,4 Z " transform="translate(652,197)" style="fill: #E1F1F9;"/><path d="M0,0 L1,0 L1,5 L5,6 L9,8 L8,28 L6,40 L5,56 L3,58 L4,32 L2,32 L2,10 L0,8 Z " transform="translate(357,240)" style="fill: #2B4B68;"/><path d="M0,0 L16,0 L26,2 L36,6 L36,8 L40,10 L42,15 L37,15 L35,12 L32,11 L32,9 L26,8 L16,6 L0,3 Z " transform="translate(608,183)" style="fill: #CD6270;"/><path d="M0,0 L5,1 L7,5 L6,9 L4,16 L3,13 L1,13 L1,37 L-3,37 L-3,8 L-1,1 Z " transform="translate(646,235)" style="fill: #243E60;"/><path d="M0,0 L1,3 L16,3 L20,4 L18,8 L8,8 L-11,4 L-42,5 L-41,2 Z " transform="translate(560,817)" style="fill: #262826;"/><path d="M0,0 L4,0 L4,2 L36,2 L55,3 L56,6 L65,6 L65,7 L44,7 L-6,3 L-15,2 L-15,1 Z " transform="translate(396,621)" style="fill: #25405F;"/><path d="M0,0 L39,0 L39,121 L38,121 L37,3 L29,2 L9,2 L1,3 L0,17 L-1,17 L-1,1 Z " transform="translate(517,215)" style="fill: #E4E171;"/><path d="M0,0 L8,0 L15,2 L14,4 L14,17 L0,17 L-16,15 L-20,13 L-30,12 L-31,4 L-29,3 L-29,9 L-16,10 L8,14 L13,16 L13,12 L11,12 L10,4 L0,2 Z " transform="translate(312,548)" style="fill: #4D8AB2;"/><path d="M0,0 L3,0 L3,50 L2,50 L1,44 L0,74 L-1,74 L-1,3 Z " transform="translate(301,654)" style="fill: #36424A;"/><path d="M0,0 L15,0 L20,2 L39,3 L39,5 L37,6 L10,6 L5,8 L2,8 L3,11 L1,19 L0,19 L-1,11 L-4,7 L-4,5 L0,4 L2,5 L2,2 Z " transform="translate(413,805)" style="fill: #1D4E77;"/><path d="M0,0 L0,3 L-8,10 L-22,17 L-37,22 L-59,26 L-78,29 L-89,30 L-102,30 L-102,29 L-67,25 L-58,23 L-46,21 L-30,17 L-11,9 Z " transform="translate(670,838)" style="fill: #B2C1C8;"/><path d="M0,0 L32,0 L52,2 L61,4 L61,7 L53,5 L7,4 L0,3 Z " transform="translate(560,474)" style="fill: #3A536A;"/><path d="M0,0 L13,0 L16,1 L16,3 L0,3 L0,5 L-13,9 L-16,9 L-16,12 L-20,15 L-26,16 L-25,11 L-22,8 L-20,8 L-20,6 L-8,1 Z " transform="translate(384,183)" style="fill: #CB6A76;"/><path d="M0,0 L4,0 L3,14 L25,11 L36,10 L37,9 L42,9 L42,7 L44,7 L44,11 L33,14 L17,17 L2,17 L0,14 Z " transform="translate(687,551)" style="fill: #326E9D;"/><path d="M0,0 L7,0 L7,5 L1,9 L-4,10 L-13,10 L-20,8 L-20,4 Z " transform="translate(644,836)" style="fill: #B74043;"/><path d="M0,0 L2,0 L1,4 L-1,4 L0,73 L2,73 L2,105 L0,105 L-1,97 L-2,73 L-2,23 L-4,23 L-3,20 L-2,3 L0,3 Z " transform="translate(306,631)" style="fill: #3B6C92;"/><path d="M0,0 L37,0 L37,1 L31,3 L24,4 L-32,4 L-32,3 L-24,2 L-24,1 Z " transform="translate(528,864)" style="fill: #132E43;"/><path d="M0,0 L1,2 L6,1 L4,5 L-2,13 L-10,20 L-20,25 L-22,25 L-22,27 L-28,31 L-33,39 L-34,36 L-29,26 L-20,22 L-15,19 L-17,17 L-12,17 L-12,15 L-8,13 L-8,9 L-5,6 L-5,10 L-3,10 L-2,4 L0,4 Z " transform="translate(705,799)" style="fill: #8092A1;"/><path d="M0,0 L27,0 L25,2 L-16,4 L-32,6 L-38,10 L-41,10 L-43,20 L-46,20 L-48,20 L-46,14 L-42,8 L-32,3 L-16,1 Z " transform="translate(432,474)" style="fill: #294963;"/><path d="M0,0 L3,0 L3,8 L0,9 L-1,7 L-4,8 L-28,7 L-29,9 L-30,8 L-30,1 L-28,2 L-12,2 Z " transform="translate(556,803)" style="fill: #DBC319;"/><path d="M0,0 L2,0 L4,4 L4,16 L2,17 L0,20 L0,18 L-14,21 L-41,22 L-43,21 L-42,18 L-42,20 L-27,19 L-3,14 L0,14 Z " transform="translate(731,548)" style="fill: #255987;"/><path d="M0,0 L1,0 L3,6 L5,11 L7,11 L7,13 L13,15 L23,19 L23,21 L27,22 L22,22 L23,25 L25,27 L21,27 L21,25 L16,25 L2,15 L0,10 Z " transform="translate(355,802)" style="fill: #6DA1BC;"/><path d="M0,0 L1,0 L1,119 L-2,134 L-5,136 L-4,130 L-2,122 L-1,96 Z " transform="translate(716,664)" style="fill: #E1E8EC;"/><path d="M0,0 L2,4 L2,8 L11,9 L12,12 L21,12 L21,20 L12,20 L12,17 L6,15 L6,17 L4,17 L3,20 L1,15 L0,8 Z " transform="translate(308,300)" style="fill: #3A78A3;"/><path d="M0,0 L40,0 L42,4 L-1,4 L-2,2 L0,2 Z " transform="translate(515,189)" style="fill: #596568;"/><path d="M0,0 L22,2 L24,3 L24,5 L43,7 L45,10 L44,11 L36,11 L24,9 L8,5 L3,4 L3,2 L0,1 Z " transform="translate(370,847)" style="fill: #2A527B;"/><path d="M0,0 L8,0 L28,5 L28,7 L24,9 L8,9 L2,6 L0,3 Z " transform="translate(368,837)" style="fill: #B7373D;"/><path d="M0,0 L9,0 L25,2 L36,2 L49,4 L51,5 L51,7 L56,8 L57,10 L45,7 L25,5 L-5,4 L-5,2 L0,2 Z " transform="translate(567,470)" style="fill: #6091B4;"/><path d="M0,0 L9,0 L9,2 L37,2 L37,6 L0,6 Z " transform="translate(463,794)" style="fill: #E4D140;"/><path d="M0,0 L21,1 L21,3 L27,3 L31,6 L21,6 L18,5 L-32,3 L-31,1 Z " transform="translate(587,183)" style="fill: #5589B3;"/><path d="M0,0 L4,0 L5,16 L8,32 L9,8 L10,8 L10,48 L7,48 L6,38 L6,33 L4,32 L1,12 L0,8 Z " transform="translate(656,512)" style="fill: #305C83;"/><path d="M0,0 L67,0 L67,1 L61,2 L45,3 L1,3 L1,10 L-1,7 Z " transform="translate(387,190)" style="fill: #345D7E;"/><path d="M0,0 L16,1 L19,3 L19,7 L11,8 L0,7 L0,5 L-8,4 L-9,3 L-14,2 L-14,1 Z " transform="translate(304,549)" style="fill: #6CA7C9;"/><path d="M0,0 L3,0 L3,3 L10,4 L10,7 L13,8 L16,11 L16,17 L15,17 L15,12 L13,12 L14,16 L14,27 L9,29 L5,31 L11,22 L11,14 L8,11 L-2,8 L-8,7 L-5,4 L-2,2 Z " transform="translate(653,789)" style="fill: #315C7F;"/><path d="M0,0 L3,1 L3,6 L-1,7 L0,37 L2,43 L-2,43 L-4,36 L-5,6 L-3,1 Z " transform="translate(327,407)" style="fill: #538EB7;"/><path d="M0,0 L1,0 L2,16 L4,16 L7,52 L5,48 L2,47 L1,43 L0,16 Z " transform="translate(643,272)" style="fill: #404E5F;"/><path d="M0,0 L1,0 L1,16 L0,13 L-12,13 L-13,11 L-13,2 L-1,2 Z " transform="translate(517,792)" style="fill: #2D6A94;"/><path d="M0,0 L3,1 L4,4 L4,12 L2,9 L2,86 L1,118 L0,118 L0,30 L-1,4 Z " transform="translate(700,250)" style="fill: #34546C;"/><path d="M0,0 L1,0 L2,16 L4,16 L4,64 L2,64 L1,48 L0,16 Z " transform="translate(646,400)" style="fill: #3B576F;"/><path d="M0,0 L4,1 L10,3 L10,7 L12,7 L13,3 L15,8 L15,11 L18,12 L16,13 L16,15 L9,14 L7,10 L2,11 L2,9 L-1,9 L-3,11 L-2,3 L0,3 Z " transform="translate(352,605)" style="fill: #538DB5;"/><path d="M0,0 L6,1 L20,3 L32,3 L32,39 L22,45 L17,48 L12,49 L12,51 L10,51 L10,53 L8,53 L10,49 L24,40 L29,37 L30,29 L31,6 L18,5 L2,3 Z " transform="translate(295,579)" style="fill: #B3D3E6;"/><path d="M0,0 L11,0 L17,1 L17,8 L16,9 L-1,9 Z " transform="translate(333,562)" style="fill: #568DB7;"/><path d="M0,0 L5,0 L5,2 L-13,8 L-29,11 L-39,11 L-37,7 L-23,6 L-16,5 L-16,3 Z " transform="translate(645,846)" style="fill: #38628F;"/><path d="M0,0 L29,0 L40,1 L40,4 L0,4 Z " transform="translate(515,180)" style="fill: #C1CF88;"/><path d="M0,0 L1,0 L2,26 L3,33 L7,33 L5,27 L6,9 L8,4 L10,4 L10,25 L9,34 L2,35 L0,31 Z " transform="translate(322,417)" style="fill: #44779E;"/><path d="M0,0 L1,0 L3,24 L4,80 L3,80 L3,72 L1,72 L0,32 Z " transform="translate(640,384)" style="fill: #4487B1;"/><path d="M0,0 L3,0 L3,7 L5,6 L11,6 L8,8 L12,9 L11,14 L4,20 L0,21 Z " transform="translate(685,386)" style="fill: #1B3D60;"/><path d="M0,0 L6,0 L2,4 L-10,6 L-10,8 L-6,11 L-5,13 L-20,15 L-26,16 L-25,14 L-28,13 L-29,9 L-16,9 L-15,7 L-12,6 L-11,3 L0,3 Z " transform="translate(656,784)" style="fill: #3E6D91;"/><path d="M0,0 L32,0 L35,2 L36,0 L37,3 L0,3 L1,29 L-1,29 L-2,19 L-2,5 Z " transform="translate(463,789)" style="fill: #DED061;"/><path d="M0,0 L11,0 L11,8 L13,8 L14,16 L12,16 L12,14 L7,14 L6,12 L7,10 L-1,8 L-1,2 Z " transform="translate(328,808)" style="fill: #193A56;"/><path d="M0,0 L16,0 L16,1 L-4,4 L-36,5 L-39,4 L-38,1 Z " transform="translate(600,790)" style="fill: #4683AD;"/><path d="M0,0 L18,1 L18,2 L3,2 L3,39 L6,39 L6,41 L11,43 L18,47 L14,50 L12,48 L14,48 L14,46 L10,47 L10,45 L6,45 L6,43 L1,42 L-3,38 L-6,36 L-4,34 L1,37 L1,12 Z " transform="translate(686,580)" style="fill: #497295;"/><path d="M0,0 L1,0 L1,10 L2,8 L15,7 L22,6 L34,7 L35,9 L39,11 L0,11 Z " transform="translate(461,808)" style="fill: #BEA72A;"/><path d="M0,0 L2,0 L2,48 L-1,48 L-1,8 Z " transform="translate(377,288)" style="fill: #5D9BC0;"/><path d="M0,0 L1,3 L1,67 L0,67 L-1,53 L-3,55 L-3,27 L-1,1 Z " transform="translate(686,453)" style="fill: #436F93;"/><path d="M0,0 L19,0 L51,1 L51,2 L43,2 L43,4 L19,4 L3,3 L0,2 Z " transform="translate(445,864)" style="fill: #183145;"/><path d="M0,0 L6,2 L6,4 L12,3 L12,5 L18,6 L18,9 L27,10 L25,11 L25,14 L19,14 L18,16 L10,10 L2,5 L-4,2 Z " transform="translate(390,796)" style="fill: #325C7E;"/><path d="M0,0 L18,1 L37,1 L37,4 L39,5 L0,5 Z " transform="translate(462,469)" style="fill: #DDD25B;"/><path d="M0,0 L24,0 L96,1 L96,2 L16,3 L3,2 Z " transform="translate(440,860)" style="fill: #32618B;"/><path d="M0,0 L9,0 L9,4 L15,4 L16,0 L16,5 L0,6 L-21,6 L-22,3 L-16,3 L-15,2 L0,2 Z " transform="translate(544,813)" style="fill: #BFA922;"/><path d="M0,0 L20,0 L22,2 L22,9 L21,12 L-7,13 L-7,9 L17,8 L21,7 L19,2 L0,1 Z " transform="translate(567,817)" style="fill: #11283C;"/><path d="M0,0 L2,4 L3,13 L3,22 L1,25 L-1,25 L-4,20 L-7,22 L-7,14 L-8,10 L-6,10 L-5,8 L-5,10 L-3,10 L-3,12 L-1,12 Z " transform="translate(644,480)" style="fill: #558FB7;"/><path d="M0,0 L1,0 L1,7 L-2,14 L-8,24 L-12,27 L-10,43 L-10,54 L-11,65 L-12,65 L-13,39 L-14,32 L-16,25 L-8,19 L-1,5 Z " transform="translate(703,381)" style="fill: #B3CED9;"/><path d="M0,0 L4,0 L4,3 L2,3 L3,27 L3,51 L2,75 L1,75 L0,22 Z " transform="translate(663,381)" style="fill: #4F7FA6;"/><path d="M0,0 L9,0 L9,4 L3,4 L3,7 L5,7 L5,14 L4,17 L-2,22 L-2,5 Z " transform="translate(503,217)" style="fill: #458BB8;"/><path d="M0,0 L2,4 L4,28 L4,52 L2,52 L2,48 L0,48 L0,36 L1,20 L-1,4 Z " transform="translate(661,292)" style="fill: #5B91BD;"/><path d="M0,0 L2,0 L4,24 L5,31 L6,32 L6,48 L5,48 L5,40 L2,40 L2,38 L0,38 Z " transform="translate(650,464)" style="fill: #325D81;"/><path d="M0,0 L2,0 L2,2 L50,2 L50,0 L58,0 L58,2 L50,4 L0,4 Z " transform="translate(558,212)" style="fill: #37556D;"/><path d="M0,0 L14,1 L107,2 L107,3 L3,3 Z " transform="translate(437,836)" style="fill: #376B98;"/><path d="M0,0 L2,0 L0,4 L-6,7 L-21,8 L-27,7 L-27,6 L-22,5 L-23,3 L-16,1 L-3,1 L0,2 Z " transform="translate(411,824)" style="fill: #62A2C3;"/><path d="M0,0 L19,0 L31,3 L38,7 L45,15 L43,19 L38,11 L36,10 L36,8 L26,5 L16,3 L-4,3 L-6,1 Z " transform="translate(608,181)" style="fill: #F6ECE9;"/><path d="M0,0 L3,3 L3,8 L1,8 L0,10 L-1,8 L-3,9 L-9,9 L-9,11 L-11,12 L-25,12 L-31,11 L-31,9 L-33,8 L-12,8 L-1,2 Z " transform="translate(409,812)" style="fill: #91B9CB;"/><path d="M0,0 L15,0 L15,27 L14,27 L13,2 L2,1 L1,59 L0,59 Z " transform="translate(502,629)" style="fill: #7B99A5;"/><path d="M0,0 L40,0 L40,3 L-1,3 Z " transform="translate(459,180)" style="fill: #D1DA90;"/><path d="M0,0 L41,0 L41,3 L0,3 Z " transform="translate(461,625)" style="fill: #37372E;"/><path d="M0,0 L43,0 L43,4 L21,3 L0,3 Z " transform="translate(459,474)" style="fill: #4D4B34;"/><path d="M0,0 L3,0 L3,3 L1,3 L2,15 L2,63 L0,63 Z " transform="translate(644,337)" style="fill: #3A5D7B;"/><path d="M0,0 L57,0 L57,1 L29,1 L29,3 L-4,5 L-5,3 L0,3 Z " transform="translate(400,184)" style="fill: #5690BA;"/><path d="M0,0 L1,0 L2,8 L2,32 L0,32 L0,64 L-1,64 L-1,5 Z " transform="translate(666,456)" style="fill: #5482A8;"/><path d="M0,0 L16,0 L12,3 L3,4 L3,14 L5,14 L8,20 L8,22 L5,22 L5,18 L3,18 L3,16 L-1,15 L-1,7 L0,4 L-6,4 L-4,2 L0,2 Z " transform="translate(384,186)" style="fill: #5278A0;"/><path d="M0,0 L29,1 L32,3 L1,4 L0,5 L-40,4 L-40,3 L0,3 Z " transform="translate(555,181)" style="fill: #5A7F9D;"/><path d="M0,0 L1,2 L-1,9 L1,9 L1,11 L4,10 L2,22 L-3,21 L-6,20 L-6,14 L-1,1 Z " transform="translate(354,362)" style="fill: #1C3D5C;"/><path d="M0,0 L1,0 L1,6 L-2,5 L-7,8 L-32,8 L-36,5 L-39,1 L-36,1 L-36,3 L-30,3 L-22,5 L-7,4 L-1,1 Z " transform="translate(412,826)" style="fill: #28557B;"/><path d="M0,0 L8,1 L18,5 L24,7 L20,10 L21,12 L2,9 L5,6 L8,6 L8,4 L4,4 L4,2 L0,2 Z " transform="translate(368,788)" style="fill: #437295;"/><path d="M0,0 L3,1 L6,9 L5,13 L4,11 L-9,11 L-11,11 L-13,12 L-12,7 L-10,7 L-10,5 L-1,4 Z " transform="translate(663,603)" style="fill: #4682A8;"/><path d="M0,0 L2,1 L4,6 L3,36 L1,37 L0,17 L-1,6 L-4,6 L-4,1 L0,2 Z " transform="translate(686,407)" style="fill: #5790B4;"/><path d="M0,0 L6,2 L8,3 L24,3 L34,0 L38,1 L33,2 L32,5 L28,5 L28,7 L25,8 L16,8 L16,7 L6,6 L0,4 Z " transform="translate(608,828)" style="fill: #234F74;"/><path d="M0,0 L3,0 L3,39 L0,39 Z " transform="translate(354,413)" style="fill: #2E435B;"/><path d="M0,0 L1,0 L3,29 L4,60 L4,80 L3,80 L1,40 L0,32 Z " transform="translate(636,280)" style="fill: #5590BA;"/><path d="M0,0 L31,0 L31,2 L24,3 L-10,3 L-10,1 Z " transform="translate(528,625)" style="fill: #2F2F2D;"/><path d="M0,0 L1,0 L2,34 L3,51 L6,60 L8,65 L12,65 L13,70 L5,64 L2,60 L1,56 L0,42 Z " transform="translate(299,738)" style="fill: #E3E9EB;"/><path d="M0,0 L32,1 L32,2 L40,3 L40,4 L-8,4 L-8,1 Z " transform="translate(496,865)" style="fill: #2B4254;"/><path d="M0,0 L1,0 L1,57 L14,57 L10,59 L-3,60 L-4,63 L-4,52 L-3,56 L0,56 Z " transform="translate(670,504)" style="fill: #447BA6;"/><path d="M0,0 L2,3 L2,20 L0,20 L1,22 L1,29 L-4,30 L-1,3 Z " transform="translate(712,765)" style="fill: #18212B;"/><path d="M0,0 L2,0 L3,9 L0,12 L-5,14 L-5,10 L-7,9 L-5,8 L-4,5 L-6,5 L-6,8 L-8,8 L-8,25 L-9,25 L-9,6 L-7,6 L-7,4 L-5,4 L-5,2 Z " transform="translate(312,626)" style="fill: #4E7EA5;"/><path d="M0,0 L7,0 L5,2 L-4,3 L-8,4 L-20,4 L-20,6 L-33,7 L-33,6 L-52,5 L-52,4 L-28,3 L-25,2 Z " transform="translate(612,624)" style="fill: #538BAD;"/><path d="M0,0 L3,4 L7,24 L8,32 L8,58 L7,58 L6,40 L1,8 Z " transform="translate(645,552)" style="fill: #366A8D;"/><path d="M0,0 L7,1 L8,3 L12,4 L12,2 L18,3 L17,5 L19,6 L19,8 L28,9 L33,10 L33,11 L22,11 L19,11 L11,8 L1,2 Z " transform="translate(354,843)" style="fill: #28405B;"/><path d="M0,0 L11,6 L27,7 L29,9 L22,10 L21,11 L9,11 L6,10 L5,7 L1,5 L1,3 L-1,1 Z " transform="translate(611,814)" style="fill: #88B5CB;"/><path d="M0,0 L21,0 L21,1 L13,1 L13,3 L-3,4 L-42,5 L-42,3 L-11,2 Z " transform="translate(603,787)" style="fill: #528DB4;"/><path d="M0,0 L7,0 L11,2 L27,4 L41,5 L38,8 L27,8 L27,6 L8,5 L5,4 L5,2 L0,2 Z " transform="translate(285,560)" style="fill: #37719E;"/><path d="M0,0 L59,0 L59,1 L54,1 L54,3 L52,4 L39,4 L39,2 L0,1 Z " transform="translate(461,188)" style="fill: #3D6187;"/><path d="M0,0 L15,0 L15,2 L21,1 L26,3 L33,4 L35,6 L34,11 L26,11 L26,10 L32,9 L31,7 L14,5 L12,4 L12,2 L0,1 Z " transform="translate(382,848)" style="fill: #1B4267;"/><path d="M0,0 L4,2 L37,2 L35,4 L30,5 L1,5 Z " transform="translate(522,790)" style="fill: #E6D353;"/><path d="M0,0 L2,1 L2,37 L0,37 L-1,31 L-1,5 Z " transform="translate(658,403)" style="fill: #2A425E;"/><path d="M0,0 L1,0 L3,24 L5,32 L9,34 L13,40 L19,45 L20,49 L14,45 L9,40 L6,36 L6,34 L4,34 L0,25 Z " transform="translate(301,360)" style="fill: #B9CCDA;"/><path d="M0,0 L6,1 L12,4 L11,11 L9,11 L7,15 L4,16 L4,18 L2,17 L4,11 L4,2 Z " transform="translate(652,797)" style="fill: #E7F4F5;"/><path d="M0,0 L13,0 L15,0 L20,1 L23,4 L30,4 L30,7 L20,6 L17,4 L7,5 L3,6 L0,4 Z " transform="translate(668,574)" style="fill: #10375B;"/><path d="M0,0 L2,0 L2,7 L-1,7 L-2,13 L-3,31 L-5,31 L-5,1 Z " transform="translate(331,413)" style="fill: #1F5E8C;"/><path d="M0,0 L12,1 L40,2 L40,4 L-1,4 Z " transform="translate(516,211)" style="fill: #535037;"/><path d="M0,0 L28,0 L47,1 L47,3 L49,4 L29,3 L5,2 L0,1 Z " transform="translate(555,180)" style="fill: #D8EAF6;"/><path d="M0,0 L17,0 L18,2 L6,5 L0,8 L0,19 L-2,19 L-3,21 L-3,14 L-4,9 L-1,5 Z " transform="translate(356,794)" style="fill: #325B7B;"/><path d="M0,0 L3,4 L24,1 L41,1 L42,3 L16,5 L0,7 Z " transform="translate(688,542)" style="fill: #ABD7EC;"/><path d="M0,0 L42,0 L42,2 L1,3 Z " transform="translate(518,474)" style="fill: #5C5431;"/><path d="M0,0 L16,0 L16,4 L13,6 L-16,6 L-16,5 L0,4 L5,2 L0,1 Z " transform="translate(576,847)" style="fill: #0E253F;"/><path d="M0,0 L1,2 L3,2 L3,4 L40,4 L40,6 L-1,6 Z " transform="translate(459,209)" style="fill: #525235;"/><path d="M0,0 L10,1 L10,7 L16,7 L16,10 L8,8 L-3,6 L-1,1 Z " transform="translate(400,841)" style="fill: #183047;"/><path d="M0,0 L42,1 L41,3 L4,3 L4,5 L1,5 Z " transform="translate(460,818)" style="fill: #332C05;"/><path d="M0,0 L1,0 L1,8 L-6,17 L-15,16 L-22,17 L-19,15 L-8,12 L-8,10 L-3,5 L-1,5 Z " transform="translate(664,803)" style="fill: #80AEC6;"/><path d="M0,0 L2,0 L4,18 L7,18 L8,24 L10,24 L10,26 L12,27 L8,28 L2,21 L2,19 L-2,18 L2,18 L0,12 Z " transform="translate(309,784)" style="fill: #304D62;"/><path d="M0,0 L15,0 L30,4 L33,7 L28,9 L24,6 L25,4 L19,3 L10,3 L9,4 L4,4 L-2,2 Z " transform="translate(364,797)" style="fill: #E6F1F5;"/><path d="M0,0 L7,3 L4,9 L12,10 L12,13 L29,12 L25,14 L9,14 L1,10 L0,8 Z " transform="translate(607,818)" style="fill: #6097B8;"/><path d="M0,0 L0,3 L-5,8 L-11,10 L-15,10 L-17,6 L-13,6 L-13,3 Z " transform="translate(733,568)" style="fill: #2D4D6D;"/><path d="M0,0 L2,0 L2,2 L34,2 L34,0 L37,0 L37,4 L0,4 Z " transform="translate(462,632)" style="fill: #F1DC65;"/><path d="M0,0 L30,0 L30,1 L16,2 L16,3 L-3,4 L-10,2 L-10,1 Z " transform="translate(472,628)" style="fill: #D7CE77;"/><path d="M0,0 L3,0 L2,16 L1,25 L0,27 L4,27 L3,32 L-2,33 L-3,30 L-1,24 Z " transform="translate(708,768)" style="fill: #2D3F55;"/><path d="M0,0 L5,1 L7,5 L6,9 L4,16 L3,13 L1,13 L1,11 L-1,11 L-2,13 L-1,3 Z " transform="translate(646,235)" style="fill: #14365C;"/><path d="M0,0 L4,1 L-1,3 L-2,7 L-6,7 L-7,10 L-5,10 L-5,16 L-10,15 L-10,12 L-17,11 L-14,8 L-8,6 L-5,5 L-5,2 Z " transform="translate(373,190)" style="fill: #4F7196;"/><path d="M0,0 L1,0 L1,27 L-1,28 L-14,28 L-15,27 L-15,16 L-13,18 L-11,27 L-4,26 L-2,24 Z " transform="translate(518,792)" style="fill: #3F544C;"/><path d="M0,0 L3,3 L4,8 L4,15 L2,15 L0,11 L-4,10 L-8,8 L-8,11 L-10,11 L-8,6 L-6,5 L-4,1 L-4,3 L-1,3 Z " transform="translate(360,597)" style="fill: #3879A4;"/><path d="M0,0 L1,0 L3,41 L3,46 L0,46 Z " transform="translate(306,344)" style="fill: #0F2230;"/><path d="M0,0 L3,0 L3,22 L0,21 L-1,8 L-3,8 L-3,3 L-1,3 Z " transform="translate(681,421)" style="fill: #4077A1;"/><path d="M0,0 L2,2 L2,6 L4,6 L5,12 L2,12 L2,38 L1,38 L0,24 L-1,23 L-1,15 L-1,12 L0,8 Z " transform="translate(660,368)" style="fill: #214669;"/><path d="M0,0 L1,0 L2,10 L12,9 L14,10 L14,15 L12,16 L7,15 L1,15 L0,13 Z " transform="translate(503,795)" style="fill: #24567F;"/><path d="M0,0 L4,1 L5,2 L5,9 L1,12 L-4,11 L-4,6 Z " transform="translate(362,234)" style="fill: #123357;"/><path d="M0,0 L1,0 L1,17 L-2,19 L-18,19 L-18,17 L-1,16 L0,9 L-15,8 L-15,7 L0,6 Z " transform="translate(350,554)" style="fill: #3A709B;"/><path d="M0,0 L1,0 L0,10 L-3,17 L-7,18 L-7,20 L-18,23 L-23,23 L-19,19 L-12,18 L-7,15 L-3,14 L-2,8 Z " transform="translate(663,760)" style="fill: #5A93B7;"/><path d="M0,0 L11,0 L19,1 L19,2 L6,3 L3,4 L-29,4 L-29,3 L-9,2 L-1,1 Z " transform="translate(581,624)" style="fill: #2F506B;"/><path d="M0,0 L10,3 L24,7 L43,11 L43,12 L35,12 L20,9 L2,3 Z " transform="translate(368,852)" style="fill: #B0BDC8;"/><path d="M0,0 L5,4 L8,5 L24,5 L28,4 L28,2 L31,2 L29,7 L22,8 L5,8 L-1,5 Z " transform="translate(368,840)" style="fill: #422D41;"/><path d="M0,0 L0,3 L-8,10 L-22,17 L-33,20 L-33,18 L-18,12 L-10,8 Z " transform="translate(670,838)" style="fill: #C0CCD6;"/><path d="M0,0 L41,0 L41,1 L8,3 L-1,3 Z " transform="translate(519,819)" style="fill: #281D0A;"/><path d="M0,0 L1,0 L3,23 L9,24 L11,26 L11,29 L14,30 L7,29 L1,24 L0,21 Z " transform="translate(366,592)" style="fill: #224365;"/><path d="M0,0 L1,0 L2,27 L3,27 L3,45 L1,45 L0,48 Z " transform="translate(701,336)" style="fill: #263746;"/><path d="M0,0 L12,2 L19,4 L37,7 L37,8 L24,8 L2,3 L2,1 Z " transform="translate(376,849)" style="fill: #3B638C;"/><path d="M0,0 L16,0 L16,1 L8,1 L8,3 L16,3 L28,6 L32,9 L26,8 L16,6 L0,3 Z " transform="translate(608,183)" style="fill: #997687;"/><path d="M0,0 L2,0 L2,24 L1,32 L-1,32 L-1,15 Z " transform="translate(710,736)" style="fill: #295273;"/><path d="M0,0 L8,1 L18,3 L18,6 L4,6 L2,5 Z " transform="translate(373,839)" style="fill: #DA2E23;"/><path d="M0,0 L7,0 L8,1 L27,2 L27,3 L-29,3 L-29,2 L-1,1 Z " transform="translate(549,186)" style="fill: #446F8D;"/><path d="M0,0 L24,1 L48,3 L48,4 L35,5 L34,4 L18,4 L18,3 L0,1 Z " transform="translate(392,624)" style="fill: #5589AC;"/><path d="M0,0 L4,1 L10,3 L10,7 L12,7 L13,3 L14,8 L12,11 L12,9 L10,9 L9,11 L9,7 L3,7 L-1,5 L-2,7 L-2,3 L0,3 Z " transform="translate(352,605)" style="fill: #4784AD;"/><path d="M0,0 L1,0 L0,13 L-4,32 L-5,32 L-5,16 Z " transform="translate(372,552)" style="fill: #2F5E85;"/><path d="M0,0 L0,3 L-4,11 L-5,15 L-7,16 L-10,23 L-11,21 L-7,5 L-4,5 L-2,1 Z " transform="translate(369,349)" style="fill: #253247;"/><path d="M0,0 L1,0 L2,11 L2,23 L1,35 L0,35 L-1,27 L-1,7 Z " transform="translate(655,245)" style="fill: #3A709A;"/><path d="M0,0 L4,1 L-3,5 L-5,5 L-5,7 L-11,11 L-16,19 L-17,16 L-12,6 L-3,2 Z " transform="translate(688,819)" style="fill: #BDC7D0;"/><path d="M0,0 L4,2 L-1,6 L-4,10 L-15,15 L-17,14 L-16,11 L-6,7 Z " transform="translate(349,201)" style="fill: #DAEDF7;"/><path d="M0,0 L11,0 L10,4 L8,5 L0,5 L-6,2 L-6,1 Z " transform="translate(632,840)" style="fill: #D9312C;"/><path d="M0,0 L39,0 L39,1 L9,2 L1,3 L0,17 L-1,17 L-1,1 Z " transform="translate(517,215)" style="fill: #D6D076;"/></svg>